<?xml version="1.0" standalone="no"?>
<svg viewBox="0 0 200 200" xmlns="http://www.w3.org/2000/svg">
  <path fill="#C59EA8" d="M35.8,-52C50.7,-46,70.3,-43.5,78.8,-33.5C87.3,-23.5,84.6,-5.8,78.9,9.1C73.3,24.1,64.7,36.3,54.8,47C44.8,57.7,33.6,66.8,20,72.9C6.5,79.1,-9.3,82.2,-25.2,80.2C-41.2,78.1,-57.3,70.9,-64.4,58.3C-71.5,45.7,-69.5,27.7,-72.1,10.3C-74.6,-7,-81.7,-23.8,-78.7,-38.3C-75.8,-52.9,-62.9,-65.3,-48.1,-71.4C-33.3,-77.4,-16.6,-77.1,-3.1,-72.3C10.4,-67.4,20.8,-57.9,35.8,-52Z" transform="translate(100 100)" />
</svg>
