<?xml version="1.0" standalone="no"?>
<svg viewBox="0 0 200 200" xmlns="http://www.w3.org/2000/svg">
  <path fill="#98B5AB" d="M48.7,-73.7C61.5,-67.6,69.1,-51.3,70.8,-35.8C72.5,-20.3,68.3,-5.5,65.3,8.8C62.3,23.1,60.5,36.9,52.8,45.6C45.1,54.2,31.5,57.6,18.5,60.2C5.4,62.9,-7.1,64.7,-17.8,61.3C-28.5,57.8,-37.5,49.1,-49.8,40.2C-62,31.3,-77.4,22.3,-80.1,10.9C-82.8,-0.6,-72.7,-14.6,-63.2,-26.1C-53.6,-37.6,-44.7,-46.6,-34.3,-53.8C-23.8,-61,-11.9,-66.3,3,-71C18,-75.7,35.9,-79.8,48.7,-73.7Z" transform="translate(100 100)" />
</svg>
