<?xml version="1.0" standalone="no"?>
<svg viewBox="0 0 200 200" xmlns="http://www.w3.org/2000/svg">
  <path fill="#B45760" d="M46.5,-67.5C55.3,-57.6,53.9,-37.4,58.3,-19.9C62.7,-2.4,72.8,12.3,71.9,25.9C71,39.6,59,52.2,45.2,57.5C31.4,62.8,15.7,60.9,-1.8,63.3C-19.2,65.7,-38.4,72.5,-51.5,66.9C-64.6,61.3,-71.5,43.4,-77.5,25.1C-83.6,6.9,-88.6,-11.8,-81.7,-24.5C-74.8,-37.2,-55.8,-44,-40.2,-51.6C-24.6,-59.3,-12.3,-67.7,3.3,-72.2C18.9,-76.7,37.7,-77.3,46.5,-67.5Z" transform="translate(100 100)" />
</svg>
