<svg xmlns="http://www.w3.org/2000/svg"  viewBox="0 0 64 64" width="64px" height="64px"><path fill="#cda1a7" d="M43.18,61H20.82a2,2,0,0,1-2-1.81L15,19H49L45.17,59.19A2,2,0,0,1,43.18,61Z"/><path fill="#c4939c" d="M22,57H42a3,3,0,0,1,3,3v1a0,0,0,0,1,0,0H19a0,0,0,0,1,0,0V60A3,3,0,0,1,22,57Z"/><path fill="#faefde" d="M43.18,39H20.82c-1,0-3.89-.78-4-1.81L15,19H49L47.17,37.19C47.07,38.22,44.21,39,43.18,39Z"/><path fill="#efd8be" d="M48 24L16 24 15 19 49 19 48 24z"/><path fill="#fff7f0" d="M50.31,19H13.69a2,2,0,0,1-1.92-2.57l1.8-6A2,2,0,0,1,15.49,9h33a2,2,0,0,1,1.92,1.43l1.8,6A2,2,0,0,1,50.31,19Z"/><path fill="#faefde" d="M45,9H19l1.54-4.63A2,2,0,0,1,22.44,3H41.56a2,2,0,0,1,1.9,1.37Z"/><path fill="#ffeb9b" d="M32 31A7 7 0 1 0 32 45A7 7 0 1 0 32 31Z"/><path fill="#8d6c9f" d="M22 26a1 1 0 0 0 1-1V23a1 1 0 0 0-2 0v2A1 1 0 0 0 22 26zM27 26a1 1 0 0 0 1-1V23a1 1 0 0 0-2 0v2A1 1 0 0 0 27 26zM32 26a1 1 0 0 0 1-1V23a1 1 0 0 0-2 0v2A1 1 0 0 0 32 26zM37 26a1 1 0 0 0 1-1V23a1 1 0 0 0-2 0v2A1 1 0 0 0 37 26zM42 26a1 1 0 0 0 1-1V23a1 1 0 0 0-2 0v2A1 1 0 0 0 42 26z"/><path fill="#8d6c9f" d="M53.19,16.14l-1.8-6A3,3,0,0,0,48.51,8H45.72L44.4,4.05A3,3,0,0,0,41.56,2H22.44A3,3,0,0,0,19.6,4.05L18.28,8H15.49a3,3,0,0,0-2.87,2.14l-1.8,6A3,3,0,0,0,13.69,20h.4l3.74,39.28a3,3,0,0,0,3,2.72H43.18a3,3,0,0,0,3-2.72L49.91,20h.4a3,3,0,0,0,2.87-3.86ZM21.49,4.68A1,1,0,0,1,22.44,4H41.56a1,1,0,0,1,.95.68L43.61,8H20.39ZM44.18,59.09a1,1,0,0,1-1,.91H20.82a1,1,0,0,1-1-.91L18,40h6.25a8,8,0,0,0,15.5,0H46ZM37.65,40a6,6,0,0,1-11.3,0A5.8,5.8,0,0,1,26,38a6,6,0,0,1,12,0A5.8,5.8,0,0,1,37.65,40Zm10-17.72A1,1,0,0,0,46,23v2a1,1,0,0,0,1,1,1,1,0,0,0,.34-.07L46.19,38H40a8,8,0,0,0-16,0H17.81L16.66,25.93A1,1,0,0,0,17,26a1,1,0,0,0,1-1V23a1,1,0,0,0-1.68-.72L16.1,20H47.9Zm3.43-4.68a1,1,0,0,1-.8.4H13.69a1,1,0,0,1-1-1.29l1.8-6a1,1,0,0,1,1-.71h33a1,1,0,0,1,1,.71l1.8,6A1,1,0,0,1,51.11,17.6Z"/><path fill="#8d6c9f" d="M33 56H23a1 1 0 0 0 0 2H33a1 1 0 0 0 0-2zM41 56H37a1 1 0 0 0 0 2h4a1 1 0 0 0 0-2z"/></svg>