<svg xmlns="http://www.w3.org/2000/svg"  viewBox="0 0 64 64" width="64px" height="64px"><path fill="#c5e4fa" d="M47,46l-6,9H18l-5-9L8,25h43L47,46z"/><path fill="#def0ff" d="M48,43L48,43c0,0.6-0.4,1-1,1H13c-0.6,0-1-0.4-1-1l0,0c0-0.6,0.4-1,1-1h34C47.6,42,48,42.4,48,43z"/><path fill="#aed3ed" d="M14.2,48.1L18,55h23l4.6-6.9H14.2z"/><path fill="#f5c872" d="M53,59H6l-3-4h52L53,59z"/><path fill="#8d6c9f" d="M47,29c0-0.6-0.4-1-1-1H25c-0.6,0-1,0.4-1,1s0.4,1,1,1h21C46.6,30,47,29.6,47,29z M22,29c0-0.6-0.4-1-1-1h-4 c-0.6,0-1,0.4-1,1s0.4,1,1,1h4C21.6,30,22,29.6,22,29z"/><path fill="#8d6c9f" d="M49.577,60H8.423c-2.456,0-4.802-1.173-6.276-3.139L1.2,55.6c-0.228-0.303-0.264-0.708-0.095-1.047 S1.621,54,2,54h54c0.379,0,0.725,0.214,0.895,0.553c0.169,0.339,0.133,0.744-0.095,1.047l-0.946,1.262 C54.38,58.827,52.033,60,49.577,60z M4.021,56c1.103,1.26,2.718,2,4.402,2h41.154c1.685,0,3.3-0.74,4.402-2H4.021z"/><path fill="#8d6c9f" d="M39.819,56H19.873l-0.237-0.142c-5.303-3.173-6.408-5.409-8.447-11.503l-0.037-0.123L6.518,26.677 c-0.17-0.644-0.035-1.316,0.372-1.844C7.298,24.304,7.916,24,8.584,24h41.257c0.647,0,1.253,0.288,1.66,0.791 c0.406,0.501,0.563,1.151,0.431,1.782l-3.724,17.634c-1.009,5.025-2.993,8.21-7.075,11.347C40.761,55.841,40.294,56,39.819,56z M20.427,54l19.488-0.032c3.702-2.845,5.419-5.6,6.335-10.164l3.726-17.644c0.009-0.04,0-0.077-0.026-0.109 C49.922,26.017,49.886,26,49.842,26H8.584c-0.045,0-0.083,0.018-0.11,0.053c-0.026,0.034-0.034,0.072-0.023,0.113l4.63,17.542 C15.048,49.585,15.988,51.307,20.427,54z"/><path fill="#8d6c9f" d="M46.444,48.094l-0.441-1.951l0.513-0.114c3.5-0.78,11.695-2.607,11.396-7.659 c-0.102-1.714-0.756-2.865-1.998-3.52c-2.057-1.082-5.069-0.477-6.109,0.151l-1.033-1.713c1.615-0.972,5.417-1.607,8.074-0.208 c1.298,0.683,2.883,2.135,3.063,5.17c0.401,6.753-8.959,8.839-12.956,9.73L46.444,48.094z"/><g><path fill="#8d6c9f" d="M17,46c-0.6,0-1,0.4-1,1v2c0,0.6,0.4,1,1,1s1-0.4,1-1v-2C18,46.4,17.6,46,17,46z"/><path fill="#8d6c9f" d="M22,46c-0.6,0-1,0.4-1,1v2c0,0.6,0.4,1,1,1s1-0.4,1-1v-2C23,46.4,22.6,46,22,46z"/><path fill="#8d6c9f" d="M27,46c-0.6,0-1,0.4-1,1v2c0,0.6,0.4,1,1,1s1-0.4,1-1v-2C28,46.4,27.6,46,27,46z"/><path fill="#8d6c9f" d="M32,46c-0.6,0-1,0.4-1,1v2c0,0.6,0.4,1,1,1c0.6,0,1-0.4,1-1v-2C33,46.4,32.6,46,32,46z"/><path fill="#8d6c9f" d="M37,46c-0.6,0-1,0.4-1,1v2c0,0.6,0.4,1,1,1s1-0.4,1-1v-2C38,46.4,37.6,46,37,46z"/><path fill="#8d6c9f" d="M43,49v-2c0-0.6-0.4-1-1-1s-1,0.4-1,1v2c0,0.6,0.4,1,1,1S43,49.6,43,49z"/></g><g><path fill="#8d6c9f" d="M32.244,22.092c-0.226,0-0.453-0.076-0.64-0.232c-0.424-0.354-0.481-0.984-0.127-1.408l0.089-0.105 c1.112-1.292,1.188-1.829,1.184-1.962c-0.013-0.489-0.151-0.684-0.403-1.038c-0.32-0.45-0.758-1.066-0.758-2.194 c0-1.125,0.445-1.741,0.77-2.189c0.251-0.348,0.39-0.54,0.39-1.018s-0.139-0.67-0.39-1.018c-0.325-0.449-0.77-1.064-0.77-2.19 c0-1.126,0.445-1.742,0.77-2.192c0.252-0.349,0.391-0.541,0.391-1.021c0-1.164-0.674-1.983-1.216-2.641l-0.095-0.115 C31.089,2.34,31.152,1.71,31.58,1.36c0.427-0.35,1.057-0.287,1.407,0.141l0.09,0.11c0.626,0.76,1.673,2.031,1.673,3.913 c0,1.126-0.444,1.742-0.77,2.192c-0.252,0.349-0.391,0.541-0.391,1.021c0,0.478,0.139,0.67,0.391,1.018 c0.324,0.449,0.77,1.064,0.77,2.19c0,1.125-0.445,1.741-0.77,2.189c-0.252,0.348-0.391,0.54-0.391,1.018 c0,0.49,0.138,0.684,0.388,1.036c0.314,0.441,0.744,1.046,0.772,2.146c0.03,1.203-0.938,2.47-1.668,3.318l-0.069,0.081 C32.814,21.97,32.53,22.092,32.244,22.092z"/><path fill="#8d6c9f" d="M26.276,22.092c-0.227,0-0.454-0.076-0.641-0.233c-0.424-0.354-0.48-0.985-0.125-1.409l0.088-0.103 c1.113-1.292,1.188-1.83,1.185-1.963c-0.013-0.489-0.151-0.684-0.403-1.038c-0.32-0.45-0.758-1.066-0.758-2.194 c0-1.128,0.439-1.744,0.76-2.193c0.251-0.353,0.39-0.547,0.4-1.035c0.013-0.595-0.232-0.934-0.788-1.643 c-0.172-0.219-0.353-0.451-0.534-0.708c-0.318-0.451-0.211-1.075,0.24-1.394c0.452-0.318,1.075-0.211,1.394,0.24 c0.161,0.228,0.322,0.433,0.475,0.628c0.61,0.78,1.242,1.585,1.213,2.919c-0.023,1.104-0.456,1.71-0.772,2.153 c-0.25,0.351-0.388,0.544-0.388,1.032c0,0.49,0.138,0.684,0.388,1.035c0.314,0.442,0.744,1.047,0.772,2.146 c0.031,1.204-0.938,2.471-1.669,3.32l-0.068,0.08C26.846,21.97,26.562,22.092,26.276,22.092z"/><path fill="#8d6c9f" d="M38.148,22.092c-0.226,0-0.453-0.076-0.64-0.232c-0.424-0.354-0.481-0.984-0.127-1.408l0.089-0.104 c1.112-1.292,1.188-1.829,1.184-1.963c-0.012-0.486-0.151-0.681-0.403-1.034c-0.321-0.451-0.763-1.069-0.757-2.203 c0.007-1.384,0.81-2.299,1.518-3.105c0.156-0.178,0.313-0.357,0.462-0.542c0.345-0.431,0.976-0.5,1.405-0.157 c0.432,0.345,0.502,0.975,0.157,1.406c-0.168,0.209-0.345,0.412-0.521,0.613c-0.631,0.719-1.018,1.19-1.021,1.795 c-0.002,0.488,0.127,0.67,0.386,1.032c0.314,0.441,0.746,1.046,0.774,2.145c0.03,1.203-0.938,2.47-1.668,3.318l-0.069,0.081 C38.72,21.97,38.436,22.092,38.148,22.092z"/><path fill="#8d6c9f" d="M20.247,22.073c-0.225,0-0.449-0.074-0.632-0.228c-0.424-0.354-0.492-0.971-0.138-1.394 c0,0,0.023-0.028,0.023-0.029c1.23-1.469,1.251-2.081,1.25-2.146c-0.024-0.954-0.236-1.221-0.802-1.933 c-0.156-0.196-0.326-0.41-0.509-0.66c-0.327-0.445-0.231-1.071,0.213-1.398c0.446-0.328,1.071-0.231,1.398,0.213 c0.167,0.227,0.322,0.422,0.463,0.6c0.641,0.806,1.194,1.502,1.236,3.126c0.024,0.935-0.537,2.074-1.715,3.48 C20.833,21.946,20.54,22.073,20.247,22.073z"/></g><g><path fill="#8d6c9f" d="M13,32h-2v-8c0-1.654,1.346-3,3-3s3,1.346,3,3v1h-2v-1c0-0.551-0.449-1-1-1s-1,0.449-1,1V32z"/><path fill="#f9e3ae" d="M16,43H8c-0.6,0-1-0.4-1-1v-5.5c0-0.3,0.1-0.6,0.4-0.8l4.1-3.2c0.4-0.3,0.9-0.3,1.2,0l3.9,3.2 c0.2,0.2,0.4,0.5,0.4,0.8V42C17,42.6,16.6,43,16,43z"/><path fill="#8d6c9f" d="M16,44H8c-1.103,0-2-0.897-2-2v-5.52c0-0.609,0.273-1.179,0.75-1.562l4.001-3.2 c0.735-0.588,1.763-0.588,2.498,0l4,3.2c0,0.001,0.001,0.001,0.001,0.001c0.476,0.383,0.75,0.952,0.75,1.562V42 C18,43.103,17.103,44,16,44z M12,33.28l-4,3.2V42h8v-5.52l0.625-0.781L16,36.481L12,33.28z"/></g></svg>