<svg xmlns="http://www.w3.org/2000/svg"  viewBox="0 0 64 64" width="64px" height="64px"><path fill="#72caaf" d="M36,17V5h-8v12c-5.124,0.569-9,4.9-9,10.055V30v31c0,1.105,0.895,2,2,2h22c1.105,0,2-0.895,2-2V30 v-2.945C45,21.9,41.124,17.569,36,17z"/><path fill="#faefde" d="M19,30h26v16H19V30z"/><path fill="#fff7f0" d="M19,30h26v6H19V30z"/><path fill="#5dbc9d" d="M44,63H20c-0.552,0-1-0.448-1-1v0c0-2.761,2.239-5,5-5h16c2.761,0,5,2.239,5,5v0 C45,62.552,44.552,63,44,63z"/><path fill="#8d6c9f" d="M22,59c-0.553,0-1-0.448-1-1v-2c0-0.552,0.447-1,1-1s1,0.448,1,1v2C23,58.552,22.553,59,22,59z"/><path fill="#8d6c9f" d="M27,59c-0.553,0-1-0.448-1-1v-2c0-0.552,0.447-1,1-1s1,0.448,1,1v2C28,58.552,27.553,59,27,59z"/><path fill="#8d6c9f" d="M32,59c-0.553,0-1-0.448-1-1v-2c0-0.552,0.447-1,1-1s1,0.448,1,1v2C33,58.552,32.553,59,32,59z"/><path fill="#8d6c9f" d="M37,59c-0.553,0-1-0.448-1-1v-2c0-0.552,0.447-1,1-1s1,0.448,1,1v2C38,58.552,37.553,59,37,59z"/><path fill="#8d6c9f" d="M42,59c-0.553,0-1-0.448-1-1v-2c0-0.552,0.447-1,1-1s1,0.448,1,1v2C43,58.552,42.553,59,42,59z"/><path fill="#72caaf" d="M36,1h-8c-1.105,0-2,0.895-2,2s0.895,2,2,2h8c1.105,0,2-0.895,2-2S37.105,1,36,1z"/><path fill="#8d6c9f" d="M32,37h-7c-0.553,0-1-0.448-1-1s0.447-1,1-1h7c0.553,0,1,0.448,1,1S32.553,37,32,37z"/><path fill="#8d6c9f" d="M35,41H25c-0.553,0-1-0.448-1-1s0.447-1,1-1h10c0.553,0,1,0.448,1,1S35.553,41,35,41z"/><path fill="#8d6c9f" d="M39,37h-3c-0.553,0-1-0.448-1-1s0.447-1,1-1h3c0.553,0,1,0.448,1,1S39.553,37,39,37z"/><path fill="#8d6c9f" d="M43,64H21c-1.654,0-3-1.346-3-3V27.055c0-5.37,3.811-9.913,9-10.914V5h2v12 c0,0.51-0.383,0.938-0.89,0.994c-4.624,0.514-8.11,4.41-8.11,9.062V61c0,0.551,0.448,1,1,1h22c0.552,0,1-0.449,1-1V27.055 c0-4.652-3.486-8.547-8.11-9.062C35.383,17.938,35,17.51,35,17V5h2v11.141c5.189,1.001,9,5.544,9,10.914V61 C46,62.654,44.654,64,43,64z"/><rect width="26" height="2" x="19" y="29" fill="#8d6c9f"/><rect width="26" height="2" x="19" y="45" fill="#8d6c9f"/><path fill="#8d6c9f" d="M36,6h-8c-1.654,0-3-1.346-3-3s1.346-3,3-3h8c1.654,0,3,1.346,3,3S37.654,6,36,6z M28,2 c-0.552,0-1,0.449-1,1s0.448,1,1,1h8c0.552,0,1-0.449,1-1s-0.448-1-1-1H28z"/></svg>