<svg xmlns="http://www.w3.org/2000/svg" xmlns:xlink="http://www.w3.org/1999/xlink" width="800" zoomAndPan="magnify" viewBox="0 0 600 525.000007" height="700" preserveAspectRatio="xMidYMid meet" version="1.0"><defs><g/><clipPath id="id1"><path d="M 85 485 L 142 485 L 142 523.898438 L 85 523.898438 Z M 85 485 " clip-rule="nonzero"/></clipPath><clipPath id="id2"><path d="M 85 511 L 142 511 L 142 523.898438 L 85 523.898438 Z M 85 511 " clip-rule="nonzero"/></clipPath><clipPath id="id3"><path d="M 169 485 L 227 485 L 227 523.898438 L 169 523.898438 Z M 169 485 " clip-rule="nonzero"/></clipPath><clipPath id="id4"><path d="M 169 511 L 227 511 L 227 523.898438 L 169 523.898438 Z M 169 511 " clip-rule="nonzero"/></clipPath><clipPath id="id5"><path d="M 63 163.085938 L 249 163.085938 L 249 320 L 63 320 Z M 63 163.085938 " clip-rule="nonzero"/></clipPath></defs><path fill="#0099e5" d="M 158.328125 333.648438 C 157.710938 344.429688 143.332031 364.429688 126.230469 363.449219 C 109.144531 362.4375 37.09375 397.089844 37.703125 386.3125 C 38.351562 375.527344 111.445312 311.324219 128.53125 312.332031 C 145.613281 313.324219 158.957031 322.871094 158.328125 333.648438 Z M 158.328125 333.648438 " fill-opacity="1" fill-rule="nonzero"/><path fill="#0099e5" d="M 151.757812 329.207031 C 152.386719 318.429688 166.757812 310.511719 183.867188 311.488281 C 200.953125 312.503906 288.945312 294.277344 288.335938 305.058594 C 287.6875 315.835938 198.648438 351.539062 181.558594 350.523438 C 164.472656 349.535156 151.128906 339.988281 151.757812 329.207031 Z M 151.757812 329.207031 " fill-opacity="1" fill-rule="nonzero"/><path fill="#0099e5" d="M 138.835938 421.507812 C 138.835938 435.464844 127.515625 510.734375 113.546875 510.734375 C 99.59375 510.734375 88.277344 435.460938 88.277344 421.507812 C 88.277344 407.554688 99.597656 396.226562 113.546875 396.226562 C 127.515625 396.226562 138.835938 407.554688 138.835938 421.507812 Z M 138.835938 421.507812 " fill-opacity="1" fill-rule="nonzero"/><path fill="#0099e5" d="M 223.550781 421.507812 C 223.550781 435.464844 212.230469 510.734375 198.257812 510.734375 C 184.304688 510.734375 172.992188 435.460938 172.992188 421.507812 C 172.992188 407.554688 184.3125 396.226562 198.257812 396.226562 C 212.230469 396.226562 223.550781 407.554688 223.550781 421.507812 Z M 223.550781 421.507812 " fill-opacity="1" fill-rule="nonzero"/><path fill="#00c9e8" d="M 227.226562 388.101562 C 227.226562 478.519531 195.304688 448.410156 155.910156 448.410156 C 116.523438 448.410156 84.59375 478.519531 84.59375 388.101562 C 84.59375 336.40625 116.535156 294.5 155.910156 294.5 C 195.292969 294.507812 227.226562 336.410156 227.226562 388.101562 Z M 227.226562 388.101562 " fill-opacity="1" fill-rule="nonzero"/><path fill="#3d3c39" d="M 159.203125 414.757812 C 159.203125 416.574219 157.722656 418.050781 155.910156 418.050781 C 154.09375 418.050781 152.617188 416.574219 152.617188 414.757812 L 152.617188 310.460938 C 152.617188 308.648438 154.09375 307.175781 155.910156 307.175781 C 157.722656 307.175781 159.203125 308.648438 159.203125 310.460938 Z M 159.203125 414.757812 " fill-opacity="1" fill-rule="nonzero"/><g clip-path="url(#id1)"><path fill="#3d3c39" d="M 142 511.191406 C 142 521.882812 129.257812 523.289062 113.558594 523.289062 C 97.859375 523.289062 85.117188 521.886719 85.117188 511.191406 C 85.117188 500.496094 97.859375 485.777344 113.558594 485.777344 C 129.257812 485.777344 142 500.496094 142 511.191406 Z M 142 511.191406 " fill-opacity="1" fill-rule="nonzero"/></g><g clip-path="url(#id2)"><path fill="#1c1b1a" d="M 142 511.191406 C 142 521.878906 129.261719 523.289062 113.558594 523.289062 C 97.859375 523.289062 85.117188 521.886719 85.117188 511.191406 " fill-opacity="1" fill-rule="nonzero"/></g><g clip-path="url(#id3)"><path fill="#3d3c39" d="M 226.707031 511.191406 C 226.707031 521.878906 213.964844 523.289062 198.265625 523.289062 C 182.566406 523.289062 169.824219 521.886719 169.824219 511.191406 C 169.824219 500.496094 182.566406 485.777344 198.265625 485.777344 C 213.964844 485.777344 226.707031 500.496094 226.707031 511.191406 Z M 226.707031 511.191406 " fill-opacity="1" fill-rule="nonzero"/></g><g clip-path="url(#id4)"><path fill="#1c1b1a" d="M 226.707031 511.191406 C 226.707031 521.878906 213.964844 523.289062 198.265625 523.289062 C 182.566406 523.289062 169.824219 521.886719 169.824219 511.191406 " fill-opacity="1" fill-rule="nonzero"/></g><g clip-path="url(#id5)"><path fill="#00c9e8" d="M 248.203125 251.410156 C 248.203125 296.507812 206.878906 319.175781 155.921875 319.175781 C 104.949219 319.175781 63.613281 296.507812 63.613281 251.410156 C 63.613281 206.304688 104.949219 162.476562 155.921875 162.476562 C 206.878906 162.476562 248.203125 206.304688 248.203125 251.410156 Z M 248.203125 251.410156 " fill-opacity="1" fill-rule="nonzero"/></g><path fill="#0099e5" d="M 248.203125 251.410156 C 248.203125 296.507812 206.878906 319.175781 155.921875 319.175781 C 104.949219 319.175781 63.613281 296.507812 63.613281 251.410156 " fill-opacity="1" fill-rule="nonzero"/><path fill="#efc286" d="M 231.292969 251.410156 C 231.292969 296.507812 206.878906 288.382812 155.921875 288.382812 C 104.949219 288.382812 80.527344 296.507812 80.527344 251.410156 C 80.527344 206.304688 104.949219 199.589844 155.921875 199.589844 C 206.878906 199.589844 231.292969 206.304688 231.292969 251.410156 Z M 231.292969 251.410156 " fill-opacity="1" fill-rule="nonzero"/><path fill="#e5ae73" d="M 155.921875 288.382812 C 206.878906 288.382812 231.292969 296.507812 231.292969 251.410156 L 80.527344 251.410156 C 80.527344 296.507812 104.949219 288.382812 155.921875 288.382812 Z M 155.921875 288.382812 " fill-opacity="1" fill-rule="nonzero"/><path fill="#113e49" d="M 120.296875 254.894531 C 120.296875 255.4375 120.242188 255.972656 120.136719 256.507812 C 120.03125 257.039062 119.875 257.554688 119.667969 258.054688 C 119.460938 258.554688 119.207031 259.03125 118.90625 259.480469 C 118.605469 259.933594 118.261719 260.347656 117.878906 260.730469 C 117.496094 261.117188 117.078125 261.457031 116.628906 261.757812 C 116.175781 262.058594 115.703125 262.3125 115.199219 262.519531 C 114.699219 262.730469 114.183594 262.886719 113.652344 262.992188 C 113.121094 263.097656 112.585938 263.148438 112.042969 263.148438 C 111.5 263.148438 110.964844 263.097656 110.433594 262.992188 C 109.902344 262.886719 109.382812 262.730469 108.882812 262.519531 C 108.382812 262.3125 107.90625 262.058594 107.457031 261.757812 C 107.007812 261.457031 106.589844 261.117188 106.207031 260.730469 C 105.824219 260.347656 105.480469 259.933594 105.179688 259.480469 C 104.878906 259.03125 104.625 258.554688 104.417969 258.054688 C 104.210938 257.554688 104.054688 257.039062 103.949219 256.507812 C 103.839844 255.972656 103.789062 255.4375 103.789062 254.894531 C 103.789062 254.355469 103.839844 253.816406 103.949219 253.285156 C 104.054688 252.753906 104.210938 252.238281 104.417969 251.738281 C 104.625 251.238281 104.878906 250.761719 105.179688 250.308594 C 105.480469 249.859375 105.824219 249.441406 106.207031 249.058594 C 106.589844 248.675781 107.007812 248.335938 107.457031 248.03125 C 107.90625 247.730469 108.382812 247.476562 108.882812 247.269531 C 109.382812 247.0625 109.902344 246.90625 110.433594 246.800781 C 110.964844 246.695312 111.5 246.640625 112.042969 246.640625 C 112.585938 246.640625 113.121094 246.695312 113.652344 246.800781 C 114.183594 246.90625 114.699219 247.0625 115.199219 247.269531 C 115.703125 247.476562 116.175781 247.730469 116.628906 248.03125 C 117.078125 248.335938 117.496094 248.675781 117.878906 249.058594 C 118.261719 249.441406 118.605469 249.859375 118.90625 250.308594 C 119.207031 250.761719 119.460938 251.238281 119.667969 251.738281 C 119.875 252.238281 120.03125 252.753906 120.136719 253.285156 C 120.242188 253.816406 120.296875 254.355469 120.296875 254.894531 Z M 120.296875 254.894531 " fill-opacity="1" fill-rule="nonzero"/><path fill="#000000" d="M 120.273438 254.894531 C 120.273438 259.46875 116.574219 263.15625 112.015625 263.15625 C 107.453125 263.15625 103.765625 259.46875 103.765625 254.894531 " fill-opacity="1" fill-rule="nonzero"/><path fill="#ffd3c5" d="M 128.300781 272.109375 C 127.863281 272.109375 127.410156 271.957031 127.066406 271.59375 C 123.035156 267.570312 117.6875 265.355469 112.003906 265.355469 L 111.992188 265.355469 C 106.308594 265.355469 100.96875 267.574219 96.960938 271.589844 C 96.28125 272.269531 95.179688 272.289062 94.503906 271.59375 C 93.820312 270.933594 93.796875 269.835938 94.480469 269.148438 C 99.160156 264.464844 105.371094 261.875 111.984375 261.875 L 111.996094 261.875 C 118.628906 261.875 124.847656 264.445312 129.535156 269.136719 C 130.207031 269.808594 130.207031 270.929688 129.535156 271.59375 C 129.203125 271.957031 128.765625 272.109375 128.300781 272.109375 Z M 128.300781 272.109375 " fill-opacity="1" fill-rule="nonzero"/><path fill="#113e49" d="M 208.058594 254.894531 C 208.058594 255.4375 208.003906 255.972656 207.898438 256.507812 C 207.792969 257.039062 207.636719 257.554688 207.429688 258.054688 C 207.222656 258.554688 206.96875 259.03125 206.667969 259.480469 C 206.367188 259.933594 206.023438 260.347656 205.640625 260.730469 C 205.257812 261.117188 204.839844 261.457031 204.390625 261.757812 C 203.9375 262.058594 203.464844 262.3125 202.964844 262.519531 C 202.460938 262.730469 201.945312 262.886719 201.414062 262.992188 C 200.882812 263.097656 200.347656 263.148438 199.804688 263.148438 C 199.261719 263.148438 198.726562 263.097656 198.195312 262.992188 C 197.664062 262.886719 197.148438 262.730469 196.644531 262.519531 C 196.144531 262.3125 195.667969 262.058594 195.21875 261.757812 C 194.769531 261.457031 194.351562 261.117188 193.96875 260.730469 C 193.585938 260.347656 193.242188 259.933594 192.941406 259.480469 C 192.640625 259.03125 192.386719 258.554688 192.179688 258.054688 C 191.972656 257.554688 191.816406 257.039062 191.710938 256.507812 C 191.605469 255.972656 191.550781 255.4375 191.550781 254.894531 C 191.550781 254.355469 191.605469 253.816406 191.710938 253.285156 C 191.816406 252.753906 191.972656 252.238281 192.179688 251.738281 C 192.386719 251.238281 192.640625 250.761719 192.941406 250.308594 C 193.242188 249.859375 193.585938 249.441406 193.96875 249.058594 C 194.351562 248.675781 194.769531 248.335938 195.21875 248.03125 C 195.667969 247.730469 196.144531 247.476562 196.644531 247.269531 C 197.148438 247.0625 197.664062 246.90625 198.195312 246.800781 C 198.726562 246.695312 199.261719 246.640625 199.804688 246.640625 C 200.347656 246.640625 200.882812 246.695312 201.414062 246.800781 C 201.945312 246.90625 202.460938 247.0625 202.964844 247.269531 C 203.464844 247.476562 203.9375 247.730469 204.390625 248.03125 C 204.839844 248.335938 205.257812 248.675781 205.640625 249.058594 C 206.023438 249.441406 206.367188 249.859375 206.667969 250.308594 C 206.96875 250.761719 207.222656 251.238281 207.429688 251.738281 C 207.636719 252.238281 207.792969 252.753906 207.898438 253.285156 C 208.003906 253.816406 208.058594 254.355469 208.058594 254.894531 Z M 208.058594 254.894531 " fill-opacity="1" fill-rule="nonzero"/><path fill="#000000" d="M 191.550781 254.894531 C 191.550781 259.46875 195.238281 263.15625 199.808594 263.15625 C 204.371094 263.15625 208.058594 259.46875 208.058594 254.894531 " fill-opacity="1" fill-rule="nonzero"/><path fill="#ffd3c5" d="M 183.523438 272.109375 C 183.953125 272.109375 184.402344 271.957031 184.746094 271.59375 C 188.777344 267.570312 194.128906 265.355469 199.808594 265.355469 L 199.820312 265.355469 C 205.503906 265.355469 210.855469 267.574219 214.863281 271.589844 C 215.535156 272.269531 216.632812 272.289062 217.320312 271.59375 C 218.003906 270.933594 218.015625 269.835938 217.332031 269.148438 C 212.675781 264.464844 206.441406 261.875 199.828125 261.875 L 199.816406 261.875 C 193.195312 261.875 186.980469 264.445312 182.277344 269.136719 C 181.617188 269.808594 181.617188 270.929688 182.277344 271.59375 C 182.621094 271.957031 183.0625 272.109375 183.523438 272.109375 Z M 183.523438 272.109375 " fill-opacity="1" fill-rule="nonzero"/><path fill="#592d08" d="M 81.925781 235.125 C 95.660156 232.847656 112.167969 228.15625 129.429688 221.222656 C 145.605469 214.722656 159.941406 207.253906 171.136719 199.878906 C 166.332031 199.691406 161.3125 199.589844 155.921875 199.589844 C 111.878906 199.589844 87.699219 204.660156 81.925781 235.125 Z M 81.925781 235.125 " fill-opacity="1" fill-rule="nonzero"/><path fill="#723b0a" d="M 140.675781 199.878906 C 151.875 207.257812 166.210938 214.722656 182.382812 221.222656 C 199.644531 228.152344 216.152344 232.847656 229.886719 235.125 C 224.121094 204.664062 199.945312 199.589844 155.914062 199.589844 C 150.527344 199.589844 145.484375 199.691406 140.675781 199.878906 Z M 140.675781 199.878906 " fill-opacity="1" fill-rule="nonzero"/><path fill="#592d08" d="M 55.785156 386.0625 C 55.785156 392.285156 50.742188 397.335938 44.527344 397.335938 L 35.382812 397.335938 C 29.171875 397.335938 24.128906 392.285156 24.128906 386.0625 L 24.128906 376.898438 C 24.128906 370.675781 29.171875 365.625 35.382812 365.625 L 44.527344 365.625 C 50.742188 365.625 55.785156 370.675781 55.785156 376.898438 Z M 55.785156 386.0625 " fill-opacity="1" fill-rule="nonzero"/><path fill="#592d08" d="M 290.953125 311.511719 C 290.953125 317.734375 285.910156 322.789062 279.695312 322.789062 L 270.550781 322.789062 C 264.332031 322.789062 259.292969 317.734375 259.292969 311.511719 L 259.292969 302.351562 C 259.292969 296.125 264.332031 291.074219 270.550781 291.074219 L 279.695312 291.074219 C 285.910156 291.074219 290.953125 296.125 290.953125 302.351562 Z M 290.953125 311.511719 " fill-opacity="1" fill-rule="nonzero"/><path fill="#e53935" d="M 343.523438 468.230469 C 343.492188 468.226562 343.460938 468.222656 343.429688 468.21875 L 304.910156 464.6875 C 304.28125 464.621094 303.640625 464.789062 303.164062 465.125 C 302.691406 465.460938 302.429688 465.9375 302.449219 466.425781 L 304.125 500.675781 C 304.144531 501.152344 304.441406 501.59375 304.9375 501.875 C 305.328125 502.105469 305.816406 502.214844 306.308594 502.195312 C 306.433594 502.1875 306.554688 502.175781 306.675781 502.152344 L 344.339844 495.515625 C 349.398438 494.449219 352.523438 488.957031 352.296875 481.515625 C 352.066406 473.984375 348.703125 468.894531 343.523438 468.230469 Z M 343.523438 468.230469 " fill-opacity="1" fill-rule="nonzero"/><path fill="#90caf9" d="M 315.578125 505.738281 C 315.527344 504.011719 312.777344 502.703125 309.222656 502.578125 C 308.394531 501.539062 303.832031 500.910156 298.332031 501.144531 C 295.351562 501.269531 292.65625 501.628906 290.695312 502.105469 C 290.21875 502.105469 289.746094 502.105469 289.253906 502.125 C 283.890625 502.351562 279.324219 503.773438 277.355469 505.613281 C 276.992188 505.613281 276.625 505.617188 276.253906 505.632812 C 269.027344 505.9375 263.253906 509.171875 263.367188 512.855469 C 263.476562 516.535156 269.433594 519.269531 276.660156 518.960938 C 277.78125 518.914062 278.855469 518.789062 279.894531 518.609375 C 281.984375 519.667969 285.230469 520.273438 288.863281 520.121094 C 293.847656 519.90625 298.027344 518.339844 299.441406 516.355469 C 307.589844 515.757812 313.925781 512.972656 313.832031 509.898438 C 313.816406 509.371094 313.59375 508.867188 313.222656 508.398438 C 314.691406 507.695312 315.609375 506.75 315.578125 505.738281 Z M 315.578125 505.738281 " fill-opacity="1" fill-rule="nonzero"/><path fill="#c62828" d="M 320.660156 482.785156 C 320.480469 476.949219 319.242188 471.144531 316.867188 466.890625 C 316.074219 465.46875 314.300781 464.53125 312.289062 464.34375 L 307.121094 463.867188 C 306.472656 463.796875 305.808594 463.972656 305.316406 464.324219 C 304.824219 464.671875 304.554688 465.167969 304.578125 465.671875 L 306.3125 501.242188 C 306.335938 501.738281 306.644531 502.195312 307.152344 502.488281 C 307.5625 502.726562 308.066406 502.84375 308.578125 502.820312 C 308.703125 502.816406 308.828125 502.800781 308.953125 502.78125 L 313.367188 502 C 315.359375 501.648438 317.066406 500.574219 317.78125 499.09375 C 319.933594 494.636719 320.839844 488.679688 320.660156 482.785156 Z M 320.660156 482.785156 " fill-opacity="1" fill-rule="nonzero"/><path fill="#90caf9" d="M 312.285156 520.25 C 312.289062 520.347656 312.257812 520.445312 312.1875 520.546875 C 312.117188 520.644531 312.015625 520.742188 311.875 520.839844 C 311.738281 520.933594 311.566406 521.027344 311.367188 521.117188 C 311.164062 521.207031 310.933594 521.292969 310.675781 521.371094 C 310.417969 521.453125 310.136719 521.527344 309.832031 521.59375 C 309.527344 521.660156 309.203125 521.722656 308.863281 521.773438 C 308.527344 521.824219 308.175781 521.867188 307.816406 521.902344 C 307.453125 521.9375 307.089844 521.960938 306.722656 521.976562 C 306.351562 521.992188 305.988281 522 305.625 521.996094 C 305.265625 521.992188 304.914062 521.976562 304.570312 521.957031 C 304.230469 521.933594 303.90625 521.898438 303.597656 521.859375 C 303.289062 521.816406 303.003906 521.769531 302.742188 521.710938 C 302.480469 521.652344 302.246094 521.585938 302.039062 521.511719 C 301.832031 521.441406 301.65625 521.363281 301.511719 521.277344 C 301.367188 521.195312 301.257812 521.105469 301.183594 521.011719 C 301.109375 520.917969 301.070312 520.824219 301.066406 520.726562 C 301.0625 520.628906 301.097656 520.53125 301.164062 520.429688 C 301.234375 520.332031 301.339844 520.234375 301.476562 520.140625 C 301.613281 520.042969 301.785156 519.949219 301.988281 519.859375 C 302.1875 519.769531 302.417969 519.683594 302.679688 519.605469 C 302.9375 519.523438 303.21875 519.449219 303.523438 519.382812 C 303.828125 519.316406 304.148438 519.257812 304.488281 519.203125 C 304.828125 519.152344 305.175781 519.109375 305.539062 519.074219 C 305.898438 519.039062 306.261719 519.015625 306.632812 519 C 307 518.984375 307.363281 518.976562 307.726562 518.980469 C 308.089844 518.984375 308.441406 519 308.78125 519.023438 C 309.121094 519.042969 309.449219 519.078125 309.753906 519.117188 C 310.0625 519.160156 310.347656 519.210938 310.609375 519.265625 C 310.875 519.324219 311.109375 519.390625 311.316406 519.464844 C 311.523438 519.535156 311.699219 519.613281 311.839844 519.699219 C 311.984375 519.78125 312.09375 519.871094 312.167969 519.964844 C 312.242188 520.058594 312.28125 520.152344 312.285156 520.25 Z M 312.285156 520.25 " fill-opacity="1" fill-rule="nonzero"/><path fill="#757575" d="M 313.492188 482.824219 C 313.53125 484.078125 313.515625 485.316406 313.441406 486.546875 C 313.371094 487.78125 313.246094 488.976562 313.070312 490.140625 C 312.890625 491.304688 312.664062 492.414062 312.386719 493.46875 C 312.109375 494.519531 311.785156 495.5 311.417969 496.398438 C 311.054688 497.300781 310.648438 498.109375 310.207031 498.824219 C 309.765625 499.535156 309.296875 500.144531 308.796875 500.644531 C 308.296875 501.144531 307.777344 501.527344 307.238281 501.796875 C 306.703125 502.0625 306.152344 502.207031 305.597656 502.230469 C 305.042969 502.253906 304.488281 502.15625 303.933594 501.9375 C 303.382812 501.714844 302.839844 501.375 302.3125 500.921875 C 301.785156 500.464844 301.277344 499.898438 300.792969 499.222656 C 300.308594 498.546875 299.859375 497.777344 299.4375 496.90625 C 299.019531 496.039062 298.636719 495.09375 298.296875 494.066406 C 297.957031 493.039062 297.664062 491.953125 297.414062 490.808594 C 297.167969 489.660156 296.96875 488.476562 296.824219 487.253906 C 296.679688 486.03125 296.585938 484.796875 296.550781 483.546875 C 296.511719 482.292969 296.527344 481.054688 296.601562 479.824219 C 296.671875 478.589844 296.796875 477.394531 296.972656 476.230469 C 297.152344 475.066406 297.378906 473.957031 297.65625 472.902344 C 297.933594 471.851562 298.257812 470.871094 298.625 469.972656 C 298.988281 469.070312 299.394531 468.261719 299.835938 467.546875 C 300.277344 466.835938 300.746094 466.226562 301.246094 465.726562 C 301.746094 465.226562 302.265625 464.84375 302.804688 464.574219 C 303.339844 464.308594 303.890625 464.164062 304.445312 464.140625 C 305 464.117188 305.554688 464.214844 306.109375 464.433594 C 306.664062 464.65625 307.203125 464.996094 307.730469 465.449219 C 308.257812 465.90625 308.765625 466.472656 309.25 467.148438 C 309.734375 467.824219 310.183594 468.59375 310.605469 469.464844 C 311.023438 470.332031 311.40625 471.277344 311.746094 472.304688 C 312.085938 473.332031 312.378906 474.417969 312.628906 475.5625 C 312.875 476.710938 313.074219 477.894531 313.21875 479.117188 C 313.363281 480.339844 313.457031 481.574219 313.492188 482.824219 Z M 313.492188 482.824219 " fill-opacity="1" fill-rule="nonzero"/><path fill="#bdbdbd" d="M 305.015625 483.390625 C 304.816406 476.890625 307.128906 471.054688 309.277344 467.574219 C 307.867188 465.597656 306.199219 464.484375 304.445312 464.558594 C 299.765625 464.757812 296.226562 473.347656 296.542969 483.75 C 296.859375 494.152344 300.910156 502.421875 305.585938 502.222656 C 307.339844 502.148438 308.933594 500.894531 310.222656 498.804688 C 307.871094 495.515625 305.210938 489.890625 305.015625 483.390625 Z M 305.015625 483.390625 " fill-opacity="1" fill-rule="nonzero"/><path fill="#e0e0e0" d="M 305.242188 504.351562 C 298.492188 504.640625 294.640625 494.308594 294.324219 483.953125 C 294.011719 473.597656 297.226562 462.964844 303.980469 462.679688 C 310.730469 462.390625 314.582031 472.722656 314.894531 483.078125 C 315.207031 493.433594 311.992188 504.066406 305.242188 504.351562 Z M 304.070312 465.652344 C 301.398438 465.769531 297.734375 472.890625 298.066406 483.792969 C 298.398438 494.695312 302.484375 501.488281 305.152344 501.375 C 307.820312 501.261719 311.488281 494.140625 311.15625 483.238281 C 310.828125 472.332031 306.738281 465.539062 304.070312 465.652344 Z M 304.070312 465.652344 " fill-opacity="1" fill-rule="nonzero"/><path fill="#90caf9" d="M 309.070312 496.742188 L 306.742188 497.121094 C 300.546875 498.132812 296.085938 502.578125 296.234375 507.578125 L 304.652344 506.132812 C 303.847656 504.417969 303.964844 501.964844 305.921875 501.128906 C 307.160156 500.601562 307.730469 499.410156 308.285156 498.453125 C 308.78125 497.601562 308.988281 496.929688 309.070312 496.742188 Z M 309.070312 496.742188 " fill-opacity="1" fill-rule="nonzero"/><path fill="#3d3c39" d="M 153.640625 320.382812 C 154.097656 320.847656 154.097656 321.589844 153.652344 322.046875 L 138.039062 337.664062 C 137.574219 338.121094 136.824219 338.121094 136.375 337.664062 C 135.910156 337.203125 135.910156 336.457031 136.375 336 L 151.992188 320.382812 C 152.445312 319.929688 153.191406 319.929688 153.640625 320.382812 Z M 153.640625 320.382812 " fill-opacity="1" fill-rule="nonzero"/><path fill="#3d3c39" d="M 155.0625 327.429688 C 154.601562 327.894531 154.601562 328.636719 155.050781 329.09375 L 170.667969 344.710938 C 171.128906 345.167969 171.878906 345.167969 172.324219 344.710938 C 172.792969 344.25 172.792969 343.503906 172.324219 343.046875 L 156.710938 327.429688 C 156.257812 326.976562 155.507812 326.976562 155.0625 327.429688 Z M 155.0625 327.429688 " fill-opacity="1" fill-rule="nonzero"/><path fill="#aa1111" d="M 133.902344 282.785156 C 133.902344 278.382812 143.019531 274.800781 154.25 274.800781 C 165.480469 274.800781 174.59375 278.382812 174.59375 282.785156 C 174.59375 287.1875 165.480469 284.554688 154.25 284.554688 C 143.019531 284.554688 133.902344 287.195312 133.902344 282.785156 Z M 133.902344 282.785156 " fill-opacity="1" fill-rule="nonzero"/><path stroke-linecap="butt" transform="matrix(0.915486, 0, 0, 0.915486, 0.570338, 14.647789)" fill="none" stroke-linejoin="miter" d="M 138.250549 145.287341 C 130.463527 145.287341 123.615215 143.73847 117.701345 140.640728 C 111.791742 137.542987 107.209132 133.165187 103.953517 127.515863 C 100.697902 121.866538 99.072228 115.304105 99.072228 107.828564 L 99.072228 34.391612 C 99.072228 33.661978 99.277037 33.090219 99.695189 32.672067 C 100.138943 32.228313 100.723503 32.006436 101.453136 32.006436 L 126.725757 32.006436 C 127.480991 32.006436 128.069818 32.228313 128.483704 32.672067 C 128.927457 33.090219 129.149334 33.661978 129.149334 34.391612 L 129.149334 109.27503 C 129.149334 112.372771 129.968571 114.860352 131.611313 116.733504 C 133.275389 118.585322 135.48989 119.506964 138.250549 119.506964 C 140.934405 119.506964 143.119038 118.585322 144.812982 116.733504 C 146.532527 114.860352 147.390167 112.372771 147.390167 109.27503 L 147.390167 34.391612 C 147.390167 33.661978 147.599243 33.090219 148.017395 32.672067 C 148.456882 32.228313 149.045709 32.006436 149.775342 32.006436 L 175.047962 32.006436 C 175.803197 32.006436 176.387757 32.228313 176.805909 32.672067 C 177.245396 33.090219 177.467273 33.661978 177.467273 34.391612 L 177.467273 107.828564 C 177.467273 115.304105 175.841599 121.866538 172.585983 127.515863 C 169.330368 133.165187 164.734958 137.542987 158.795487 140.640728 C 152.885884 143.73847 146.037572 145.287341 138.250549 145.287341 Z M 235.38565 34.391612 C 235.38565 33.661978 235.594726 33.090219 236.012879 32.672067 C 236.456632 32.228313 237.041192 32.006436 237.770826 32.006436 L 263.081848 32.006436 C 263.811481 32.006436 264.38324 32.228313 264.801393 32.672067 C 265.245146 33.090219 265.467023 33.661978 265.467023 34.391612 L 265.467023 141.61784 C 265.467023 142.347473 265.245146 142.932033 264.801393 143.375787 C 264.38324 143.789672 263.811481 143.998748 263.081848 143.998748 L 237.770826 143.998748 C 237.041192 143.998748 236.456632 143.789672 236.012879 143.375787 C 235.594726 142.932033 235.38565 142.347473 235.38565 141.61784 L 235.38565 101.424005 C 235.38565 100.796776 235.061369 100.485295 234.408539 100.485295 L 218.43341 100.485295 C 217.784847 100.485295 217.456298 100.796776 217.456298 101.424005 L 217.456298 141.61784 C 217.456298 142.347473 217.234422 142.932033 216.794935 143.375787 C 216.376782 143.789672 215.805023 143.998748 215.07539 143.998748 L 189.802769 143.998748 C 189.047535 143.998748 188.445907 143.789672 188.002154 143.375787 C 187.588268 142.932033 187.379192 142.347473 187.379192 141.61784 L 187.379192 34.391612 C 187.379192 33.661978 187.588268 33.090219 188.002154 32.672067 C 188.445907 32.228313 189.047535 32.006436 189.802769 32.006436 L 215.07539 32.006436 C 215.805023 32.006436 216.376782 32.228313 216.794935 32.672067 C 217.234422 33.090219 217.456298 33.661978 217.456298 34.391612 L 217.456298 73.766209 C 217.456298 74.389171 217.784847 74.704919 218.43341 74.704919 L 234.408539 74.704919 C 235.061369 74.704919 235.38565 74.389171 235.38565 73.766209 Z M 275.532549 111.186584 C 274.802916 111.186584 274.218356 110.977508 273.774602 110.563622 C 273.35645 110.14547 273.147374 109.56091 273.147374 108.805675 L 273.147374 87.983391 C 273.147374 87.253758 273.35645 86.681999 273.774602 86.263846 C 274.218356 85.82436 274.802916 85.602483 275.532549 85.602483 L 325.296954 85.602483 C 326.052189 85.602483 326.636749 85.82436 327.054901 86.263846 C 327.498655 86.681999 327.720532 87.253758 327.720532 87.983391 L 327.720532 108.805675 C 327.720532 109.56091 327.498655 110.14547 327.054901 110.563622 C 326.636749 110.977508 326.052189 111.186584 325.296954 111.186584 Z M 375.044292 145.603088 C 367.05246 145.603088 360.007872 143.998748 353.914794 140.798602 C 347.847317 137.594189 343.158036 133.088384 339.851219 127.281185 C 336.544401 121.473987 334.888859 114.728079 334.888859 107.047728 L 334.888859 68.961723 C 334.888859 61.277106 336.544401 54.561066 339.851219 48.80507 C 343.158036 43.049074 347.847317 38.59447 353.914794 35.445527 C 360.007872 32.292316 367.05246 30.717844 375.044292 30.717844 C 383.065991 30.717844 390.136181 32.292316 396.259127 35.445527 C 402.403407 38.59447 407.13109 43.049074 410.437907 48.80507 C 413.744725 54.561066 415.396 61.277106 415.396 68.961723 L 415.396 107.047728 C 415.396 114.728079 413.719124 121.473987 410.356837 127.281185 C 406.998817 133.088384 402.271135 137.594189 396.178057 140.798602 C 390.11058 143.998748 383.065991 145.603088 375.044292 145.603088 Z M 375.044292 119.861113 C 378.1463 119.861113 380.63388 118.790131 382.507032 116.6567 C 384.384452 114.519003 385.318894 111.68154 385.318894 108.140045 L 385.318894 68.142486 C 385.318894 64.626592 384.384452 61.797663 382.507032 59.664232 C 380.63388 57.526535 378.1463 56.459819 375.044292 56.459819 C 372.078823 56.459819 369.655246 57.526535 367.782094 59.664232 C 365.904675 61.797663 364.970232 64.626592 364.970232 68.142486 L 364.970232 108.140045 C 364.970232 111.68154 365.904675 114.519003 367.782094 116.6567 C 369.655246 118.790131 372.078823 119.861113 375.044292 119.861113 Z M 472.665815 34.391612 C 472.665815 33.661978 472.874891 33.090219 473.293043 32.672067 C 473.736797 32.228313 474.321357 32.006436 475.05099 32.006436 L 500.362012 32.006436 C 501.091646 32.006436 501.663405 32.228313 502.081557 32.672067 C 502.525311 33.090219 502.747188 33.661978 502.747188 34.391612 L 502.747188 141.61784 C 502.747188 142.347473 502.525311 142.932033 502.081557 143.375787 C 501.663405 143.789672 501.091646 143.998748 500.362012 143.998748 L 475.05099 143.998748 C 474.321357 143.998748 473.736797 143.789672 473.293043 143.375787 C 472.874891 142.932033 472.665815 142.347473 472.665815 141.61784 L 472.665815 101.424005 C 472.665815 100.796776 472.341533 100.485295 471.688703 100.485295 L 455.713574 100.485295 C 455.065011 100.485295 454.736463 100.796776 454.736463 101.424005 L 454.736463 141.61784 C 454.736463 142.347473 454.514586 142.932033 454.075099 143.375787 C 453.656947 143.789672 453.085188 143.998748 452.355554 143.998748 L 427.082934 143.998748 C 426.327699 143.998748 425.726072 143.789672 425.282318 143.375787 C 424.868433 142.932033 424.659357 142.347473 424.659357 141.61784 L 424.659357 34.391612 C 424.659357 33.661978 424.868433 33.090219 425.282318 32.672067 C 425.726072 32.228313 426.327699 32.006436 427.082934 32.006436 L 452.355554 32.006436 C 453.085188 32.006436 453.656947 32.228313 454.075099 32.672067 C 454.514586 33.090219 454.736463 33.661978 454.736463 34.391612 L 454.736463 73.766209 C 454.736463 74.389171 455.065011 74.704919 455.713574 74.704919 L 471.688703 74.704919 C 472.341533 74.704919 472.665815 74.389171 472.665815 73.766209 Z M 524.021759 104.31267 C 523.266525 104.31267 522.656363 104.103594 522.187009 103.685442 C 521.717654 103.245955 521.482976 102.657128 521.482976 101.931762 L 518.594311 34.391612 C 518.594311 32.800072 519.336745 32.006436 520.821613 32.006436 L 546.094233 32.006436 C 547.604702 32.006436 548.359937 32.800072 548.359937 34.391612 L 545.467005 101.931762 C 545.467005 102.657128 545.219527 103.245955 544.724571 103.685442 C 544.255216 104.103594 543.645055 104.31267 542.88982 104.31267 Z M 532.969367 143.998748 C 528.617169 143.998748 525.024471 142.594951 522.187009 139.783089 C 519.349546 136.94136 517.928681 133.335862 517.928681 128.962329 C 517.928681 124.482124 519.349546 120.863826 522.187009 118.103166 C 525.024471 115.316906 528.617169 113.921642 532.969367 113.921642 C 537.3429 113.921642 540.935598 115.316906 543.747459 118.103166 C 546.589189 120.863826 548.005787 124.482124 548.005787 128.962329 C 548.005787 133.233457 546.589189 136.813354 543.747459 139.702019 C 540.935598 142.56935 537.3429 143.998748 532.969367 143.998748 Z M 532.969367 143.998748 " stroke="#ff9e5e" stroke-width="3.8" stroke-opacity="1" stroke-miterlimit="4"/><g fill="#000000" fill-opacity="1"><g transform="translate(276.552979, 256.712872)"><g><path d="M 16.796875 -19.09375 L 16.796875 -21.453125 L 0.335938 -21.453125 L 0.335938 -19.09375 L 7.324219 -19.09375 L 7.324219 0 L 9.777344 0 L 9.777344 -19.09375 Z M 16.796875 -19.09375 "/></g></g></g><g fill="#000000" fill-opacity="1"><g transform="translate(293.652073, 256.712872)"><g><path d="M 11.738281 -16.242188 C 8.765625 -16.210938 6.558594 -15.046875 5.457031 -12.535156 L 5.457031 -22.742188 L 3.066406 -22.742188 L 3.066406 0 L 5.457031 0 L 5.457031 -7.9375 C 5.457031 -11.402344 7.476562 -13.820312 10.910156 -13.851562 C 13.761719 -13.851562 15.476562 -12.167969 15.476562 -9.316406 L 15.476562 0 L 17.867188 0 L 17.867188 -9.960938 C 17.867188 -13.851562 15.601562 -16.242188 11.738281 -16.242188 Z M 11.738281 -16.242188 "/></g></g></g><g fill="#000000" fill-opacity="1"><g transform="translate(313.938104, 256.712872)"><g><path d="M 9.285156 -16.210938 C 4.597656 -16.210938 1.289062 -12.871094 1.289062 -8.058594 C 1.289062 -3.25 4.566406 0.09375 9.316406 0.09375 C 12.015625 0.09375 14.28125 -0.890625 15.8125 -2.605469 L 14.496094 -4.015625 C 13.238281 -2.695312 11.492188 -1.992188 9.5 -1.992188 C 6.375 -1.992188 4.078125 -3.984375 3.648438 -7.140625 L 16.824219 -7.140625 C 17.070312 -12.628906 14.496094 -16.242188 9.285156 -16.210938 Z M 3.648438 -9.101562 C 4.015625 -12.167969 6.222656 -14.160156 9.285156 -14.160156 C 12.441406 -14.160156 14.527344 -12.199219 14.679688 -9.101562 Z M 3.648438 -9.101562 "/></g></g></g><g fill="#000000" fill-opacity="1"><g transform="translate(331.956502, 256.712872)"><g/></g></g><g fill="#000000" fill-opacity="1"><g transform="translate(340.352835, 256.712872)"><g><path d="M 11.675781 -16.242188 C 8.855469 -16.242188 6.652344 -14.925781 5.457031 -12.65625 L 5.457031 -22.742188 L 3.066406 -22.742188 L 3.066406 0 L 5.457031 0 L 5.457031 -3.464844 C 6.652344 -1.226562 8.855469 0.09375 11.738281 0.09375 C 16.304688 0.09375 19.429688 -3.25 19.429688 -8.03125 C 19.429688 -12.871094 16.242188 -16.242188 11.675781 -16.242188 Z M 11.246094 -2.085938 C 7.847656 -2.085938 5.457031 -4.566406 5.457031 -8.089844 C 5.457031 -11.585938 7.847656 -14.097656 11.246094 -14.097656 C 14.617188 -14.097656 17.007812 -11.554688 17.007812 -8.089844 C 17.007812 -4.597656 14.617188 -2.085938 11.246094 -2.085938 Z M 11.246094 -2.085938 "/></g></g></g><g fill="#000000" fill-opacity="1"><g transform="translate(361.067874, 256.712872)"><g><path d="M 9.285156 -16.210938 C 4.597656 -16.210938 1.289062 -12.871094 1.289062 -8.058594 C 1.289062 -3.25 4.566406 0.09375 9.316406 0.09375 C 12.015625 0.09375 14.28125 -0.890625 15.8125 -2.605469 L 14.496094 -4.015625 C 13.238281 -2.695312 11.492188 -1.992188 9.5 -1.992188 C 6.375 -1.992188 4.078125 -3.984375 3.648438 -7.140625 L 16.824219 -7.140625 C 17.070312 -12.628906 14.496094 -16.242188 9.285156 -16.210938 Z M 3.648438 -9.101562 C 4.015625 -12.167969 6.222656 -14.160156 9.285156 -14.160156 C 12.441406 -14.160156 14.527344 -12.199219 14.679688 -9.101562 Z M 3.648438 -9.101562 "/></g></g></g><g fill="#000000" fill-opacity="1"><g transform="translate(379.086272, 256.712872)"><g><path d="M 9.011719 0 L 15.355469 -16.152344 L 12.933594 -16.152344 L 7.816406 -2.484375 L 2.667969 -16.152344 L 0.121094 -16.152344 L 6.527344 0 Z M 9.011719 0 "/></g></g></g><g fill="#000000" fill-opacity="1"><g transform="translate(394.346758, 256.712872)"><g><path d="M 9.285156 -16.210938 C 4.597656 -16.210938 1.289062 -12.871094 1.289062 -8.058594 C 1.289062 -3.25 4.566406 0.09375 9.316406 0.09375 C 12.015625 0.09375 14.28125 -0.890625 15.8125 -2.605469 L 14.496094 -4.015625 C 13.238281 -2.695312 11.492188 -1.992188 9.5 -1.992188 C 6.375 -1.992188 4.078125 -3.984375 3.648438 -7.140625 L 16.824219 -7.140625 C 17.070312 -12.628906 14.496094 -16.242188 9.285156 -16.210938 Z M 3.648438 -9.101562 C 4.015625 -12.167969 6.222656 -14.160156 9.285156 -14.160156 C 12.441406 -14.160156 14.527344 -12.199219 14.679688 -9.101562 Z M 3.648438 -9.101562 "/></g></g></g><g fill="#000000" fill-opacity="1"><g transform="translate(412.365156, 256.712872)"><g><path d="M 5.300781 -16.152344 L 2.910156 -16.152344 L 2.910156 0 L 5.300781 0 L 5.300781 -8.582031 C 5.578125 -11.769531 7.691406 -13.882812 11.09375 -13.820312 L 11.09375 -16.242188 C 8.367188 -16.210938 6.375 -14.925781 5.300781 -12.566406 Z M 5.300781 -16.152344 "/></g></g></g><g fill="#000000" fill-opacity="1"><g transform="translate(423.764558, 256.712872)"><g><path d="M 12.933594 0 L 15.261719 0 L 15.230469 -10.664062 C 15.203125 -14.128906 12.996094 -16.242188 9.011719 -16.242188 C 6.253906 -16.242188 4.503906 -15.445312 2.421875 -14.066406 L 3.433594 -12.320312 C 5.117188 -13.484375 6.773438 -14.160156 8.550781 -14.160156 C 11.402344 -14.160156 12.871094 -12.75 12.871094 -10.390625 L 12.871094 -9.441406 L 7.570312 -9.441406 C 3.769531 -9.410156 1.53125 -7.632812 1.53125 -4.8125 C 1.53125 -2.023438 3.679688 0.121094 7.019531 0.121094 C 9.59375 0.121094 11.644531 -0.734375 12.933594 -2.484375 Z M 7.476562 -1.960938 C 5.210938 -1.960938 3.769531 -3.125 3.769531 -4.902344 C 3.769531 -6.679688 5.179688 -7.507812 7.875 -7.507812 L 12.902344 -7.507812 L 12.902344 -5.578125 C 12.289062 -3.339844 10.207031 -1.960938 7.476562 -1.960938 Z M 7.476562 -1.960938 "/></g></g></g><g fill="#000000" fill-opacity="1"><g transform="translate(441.445882, 256.712872)"><g><path d="M 16.980469 -16.152344 L 14.589844 -16.152344 L 14.589844 -12.871094 C 13.421875 -15.015625 11.339844 -16.242188 8.582031 -16.242188 C 4.261719 -16.210938 1.289062 -13.023438 1.289062 -8.519531 C 1.289062 -3.921875 4.289062 -0.703125 8.644531 -0.703125 C 11.371094 -0.703125 13.453125 -1.929688 14.589844 -4.078125 L 14.589844 -1.625 C 14.589844 1.746094 12.289062 3.890625 8.765625 3.890625 C 6.621094 3.863281 4.933594 3.15625 3.339844 1.839844 L 2.238281 3.679688 C 4.199219 5.148438 6.3125 5.976562 8.855469 6.007812 C 13.761719 6.007812 16.980469 3.035156 16.980469 -1.6875 Z M 9.070312 -2.726562 C 5.824219 -2.726562 3.554688 -5.117188 3.523438 -8.429688 C 3.554688 -11.769531 5.824219 -14.160156 9.070312 -14.160156 C 12.289062 -14.160156 14.589844 -11.800781 14.589844 -8.429688 C 14.589844 -5.117188 12.289062 -2.726562 9.070312 -2.726562 Z M 9.070312 -2.726562 "/></g></g></g><g fill="#000000" fill-opacity="1"><g transform="translate(460.93517, 256.712872)"><g><path d="M 9.285156 -16.210938 C 4.597656 -16.210938 1.289062 -12.871094 1.289062 -8.058594 C 1.289062 -3.25 4.566406 0.09375 9.316406 0.09375 C 12.015625 0.09375 14.28125 -0.890625 15.8125 -2.605469 L 14.496094 -4.015625 C 13.238281 -2.695312 11.492188 -1.992188 9.5 -1.992188 C 6.375 -1.992188 4.078125 -3.984375 3.648438 -7.140625 L 16.824219 -7.140625 C 17.070312 -12.628906 14.496094 -16.242188 9.285156 -16.210938 Z M 3.648438 -9.101562 C 4.015625 -12.167969 6.222656 -14.160156 9.285156 -14.160156 C 12.441406 -14.160156 14.527344 -12.199219 14.679688 -9.101562 Z M 3.648438 -9.101562 "/></g></g></g><g fill="#000000" fill-opacity="1"><g transform="translate(478.953569, 256.712872)"><g/></g></g><g fill="#000000" fill-opacity="1"><g transform="translate(487.349901, 256.712872)"><g><path d="M 15.476562 -16.152344 L 13.023438 -16.152344 L 7.90625 -2.820312 L 2.542969 -16.152344 L 0.03125 -16.152344 L 6.710938 -0.121094 L 6.039062 1.378906 C 5.394531 2.882812 4.351562 3.648438 3.09375 3.648438 C 2.296875 3.648438 1.5625 3.402344 0.828125 2.882812 L -0.183594 4.871094 C 0.796875 5.667969 1.871094 6.066406 3.21875 6.066406 C 5.363281 6.066406 7.050781 4.78125 8.058594 2.296875 Z M 15.476562 -16.152344 "/></g></g></g><g fill="#000000" fill-opacity="1"><g transform="translate(502.732966, 256.712872)"><g><path d="M 9.46875 -16.210938 C 4.6875 -16.210938 1.289062 -12.902344 1.289062 -8.089844 C 1.289062 -3.25 4.6875 0.09375 9.46875 0.09375 C 14.25 0.09375 17.652344 -3.25 17.652344 -8.089844 C 17.652344 -12.902344 14.25 -16.210938 9.46875 -16.210938 Z M 9.46875 -14.035156 C 12.839844 -14.035156 15.261719 -11.585938 15.261719 -8.058594 C 15.261719 -4.503906 12.839844 -2.054688 9.46875 -2.054688 C 6.097656 -2.054688 3.679688 -4.503906 3.679688 -8.058594 C 3.679688 -11.585938 6.097656 -14.035156 9.46875 -14.035156 Z M 9.46875 -14.035156 "/></g></g></g><g fill="#000000" fill-opacity="1"><g transform="translate(521.670668, 256.712872)"><g><path d="M 16.917969 -16.152344 L 14.527344 -16.152344 L 14.527344 -8.214844 C 14.527344 -4.78125 12.566406 -2.359375 9.226562 -2.296875 C 6.4375 -2.296875 4.75 -3.984375 4.75 -6.835938 L 4.75 -16.152344 L 2.359375 -16.152344 L 2.359375 -6.191406 C 2.359375 -2.296875 4.628906 0.09375 8.398438 0.09375 C 11.308594 0.0625 13.453125 -1.132812 14.527344 -3.648438 L 14.527344 0 L 16.917969 0 Z M 16.917969 -16.152344 "/></g></g></g><g fill="#000000" fill-opacity="1"><g transform="translate(337.975153, 322.614121)"><g><path d="M 20.589844 0 L 26.5625 -16.148438 L 24.082031 -16.148438 L 19.363281 -2.480469 L 14.613281 -16.148438 L 12.101562 -16.148438 L 7.414062 -2.480469 L 2.636719 -16.148438 L 0.121094 -16.148438 L 6.160156 0 L 8.640625 0 L 13.359375 -13.113281 L 18.109375 0 Z M 20.589844 0 "/></g></g></g><g fill="#000000" fill-opacity="1"><g transform="translate(364.442153, 322.614121)"><g><path d="M 12.929688 0 L 15.257812 0 L 15.226562 -10.664062 C 15.195312 -14.125 12.992188 -16.238281 9.007812 -16.238281 C 6.25 -16.238281 4.503906 -15.441406 2.421875 -14.0625 L 3.429688 -12.316406 C 5.117188 -13.480469 6.769531 -14.15625 8.546875 -14.15625 C 11.398438 -14.15625 12.867188 -12.746094 12.867188 -10.386719 L 12.867188 -9.4375 L 7.566406 -9.4375 C 3.769531 -9.40625 1.53125 -7.628906 1.53125 -4.808594 C 1.53125 -2.023438 3.675781 0.121094 7.015625 0.121094 C 9.589844 0.121094 11.644531 -0.734375 12.929688 -2.480469 Z M 7.476562 -1.960938 C 5.207031 -1.960938 3.769531 -3.125 3.769531 -4.902344 C 3.769531 -6.679688 5.179688 -7.507812 7.875 -7.507812 L 12.898438 -7.507812 L 12.898438 -5.578125 C 12.285156 -3.339844 10.203125 -1.960938 7.476562 -1.960938 Z M 7.476562 -1.960938 "/></g></g></g><g fill="#000000" fill-opacity="1"><g transform="translate(382.11745, 322.614121)"><g><path d="M 11.550781 -16.238281 C 8.609375 -16.207031 6.433594 -15.042969 5.300781 -12.59375 L 5.300781 -16.148438 L 2.910156 -16.148438 L 2.910156 0 L 5.300781 0 L 5.300781 -8.671875 C 5.578125 -11.734375 7.539062 -13.816406 10.722656 -13.847656 C 13.574219 -13.847656 15.289062 -12.164062 15.289062 -9.3125 L 15.289062 0 L 17.679688 0 L 17.679688 -9.957031 C 17.679688 -13.847656 15.410156 -16.238281 11.550781 -16.238281 Z M 11.550781 -16.238281 "/></g></g></g><g fill="#000000" fill-opacity="1"><g transform="translate(402.212764, 322.614121)"><g><path d="M 10.570312 -3.035156 C 9.683594 -2.480469 8.824219 -2.207031 7.996094 -2.207031 C 6.617188 -2.207031 5.851562 -2.941406 5.851562 -4.902344 L 5.851562 -13.695312 L 10.96875 -13.695312 L 10.96875 -15.65625 L 5.851562 -15.625 L 5.851562 -19.886719 L 3.492188 -19.886719 L 3.492188 -15.625 L 1.164062 -15.625 L 1.164062 -13.695312 L 3.492188 -13.695312 L 3.492188 -4.472656 C 3.492188 -1.285156 5.238281 0.121094 7.597656 0.121094 C 8.886719 0.09375 10.109375 -0.335938 11.246094 -1.101562 Z M 10.570312 -3.035156 "/></g></g></g><g fill="#000000" fill-opacity="1"><g transform="translate(414.15967, 322.614121)"><g><path d="M 9.285156 -16.207031 C 4.597656 -16.207031 1.285156 -12.867188 1.285156 -8.058594 C 1.285156 -3.246094 4.566406 0.09375 9.3125 0.09375 C 12.011719 0.09375 14.277344 -0.886719 15.808594 -2.605469 L 14.492188 -4.015625 C 13.234375 -2.695312 11.488281 -1.992188 9.5 -1.992188 C 6.371094 -1.992188 4.074219 -3.984375 3.644531 -7.140625 L 16.820312 -7.140625 C 17.066406 -12.625 14.492188 -16.238281 9.285156 -16.207031 Z M 3.644531 -9.101562 C 4.015625 -12.164062 6.21875 -14.15625 9.285156 -14.15625 C 12.441406 -14.15625 14.523438 -12.195312 14.675781 -9.101562 Z M 3.644531 -9.101562 "/></g></g></g><g fill="#000000" fill-opacity="1"><g transform="translate(432.171926, 322.614121)"><g><path d="M 17.738281 -22.734375 L 15.351562 -22.734375 L 15.351562 -12.652344 C 14.15625 -14.953125 11.917969 -16.269531 9.039062 -16.269531 C 4.472656 -16.269531 1.285156 -12.929688 1.285156 -8.089844 C 1.285156 -3.277344 4.472656 0.121094 9.070312 0.121094 C 11.949219 0.121094 14.15625 -1.195312 15.351562 -3.460938 L 15.351562 0 L 17.738281 0 Z M 9.527344 -2.023438 C 6.097656 -2.023438 3.675781 -4.535156 3.675781 -8.027344 C 3.675781 -11.550781 6.097656 -14.09375 9.527344 -14.09375 C 12.929688 -14.09375 15.351562 -11.550781 15.351562 -8.027344 C 15.351562 -4.535156 12.929688 -2.023438 9.527344 -2.023438 Z M 9.527344 -2.023438 "/></g></g></g><g fill="#000000" fill-opacity="1"><g transform="translate(452.971803, 322.614121)"><g/></g></g><g fill="#000000" fill-opacity="1"><g transform="translate(461.365266, 322.614121)"><g><path d="M 10.570312 -3.035156 C 9.683594 -2.480469 8.824219 -2.207031 7.996094 -2.207031 C 6.617188 -2.207031 5.851562 -2.941406 5.851562 -4.902344 L 5.851562 -13.695312 L 10.96875 -13.695312 L 10.96875 -15.65625 L 5.851562 -15.625 L 5.851562 -19.886719 L 3.492188 -19.886719 L 3.492188 -15.625 L 1.164062 -15.625 L 1.164062 -13.695312 L 3.492188 -13.695312 L 3.492188 -4.472656 C 3.492188 -1.285156 5.238281 0.121094 7.597656 0.121094 C 8.886719 0.09375 10.109375 -0.335938 11.246094 -1.101562 Z M 10.570312 -3.035156 "/></g></g></g><g fill="#000000" fill-opacity="1"><g transform="translate(473.312171, 322.614121)"><g><path d="M 9.46875 -16.207031 C 4.6875 -16.207031 1.285156 -12.898438 1.285156 -8.089844 C 1.285156 -3.246094 4.6875 0.09375 9.46875 0.09375 C 14.246094 0.09375 17.648438 -3.246094 17.648438 -8.089844 C 17.648438 -12.898438 14.246094 -16.207031 9.46875 -16.207031 Z M 9.46875 -14.03125 C 12.835938 -14.03125 15.257812 -11.582031 15.257812 -8.058594 C 15.257812 -4.503906 12.835938 -2.054688 9.46875 -2.054688 C 6.097656 -2.054688 3.675781 -4.503906 3.675781 -8.058594 C 3.675781 -11.582031 6.097656 -14.03125 9.46875 -14.03125 Z M 9.46875 -14.03125 "/></g></g></g><g fill="#000000" fill-opacity="1"><g transform="translate(492.243423, 322.614121)"><g/></g></g><g fill="#000000" fill-opacity="1"><g transform="translate(500.636885, 322.614121)"><g><path d="M 17.738281 -22.734375 L 15.351562 -22.734375 L 15.351562 -12.652344 C 14.15625 -14.953125 11.917969 -16.269531 9.039062 -16.269531 C 4.472656 -16.269531 1.285156 -12.929688 1.285156 -8.089844 C 1.285156 -3.277344 4.472656 0.121094 9.070312 0.121094 C 11.949219 0.121094 14.15625 -1.195312 15.351562 -3.460938 L 15.351562 0 L 17.738281 0 Z M 9.527344 -2.023438 C 6.097656 -2.023438 3.675781 -4.535156 3.675781 -8.027344 C 3.675781 -11.550781 6.097656 -14.09375 9.527344 -14.09375 C 12.929688 -14.09375 15.351562 -11.550781 15.351562 -8.027344 C 15.351562 -4.535156 12.929688 -2.023438 9.527344 -2.023438 Z M 9.527344 -2.023438 "/></g></g></g><g fill="#000000" fill-opacity="1"><g transform="translate(521.436762, 322.614121)"><g><path d="M 5.300781 -16.148438 L 2.910156 -16.148438 L 2.910156 0 L 5.300781 0 L 5.300781 -8.578125 C 5.578125 -11.765625 7.691406 -13.878906 11.089844 -13.816406 L 11.089844 -16.238281 C 8.363281 -16.207031 6.371094 -14.921875 5.300781 -12.5625 Z M 5.300781 -16.148438 "/></g></g></g><g fill="#000000" fill-opacity="1"><g transform="translate(532.832277, 322.614121)"><g><path d="M 4.074219 -22.429688 C 3.1875 -22.429688 2.511719 -21.722656 2.511719 -20.773438 C 2.511719 -19.824219 3.1875 -19.117188 4.074219 -19.117188 C 4.964844 -19.117188 5.636719 -19.824219 5.636719 -20.773438 C 5.636719 -21.722656 4.964844 -22.429688 4.074219 -22.429688 Z M 5.269531 0 L 5.269531 -16.148438 L 2.910156 -16.148438 L 2.910156 0 Z M 5.269531 0 "/></g></g></g><g fill="#000000" fill-opacity="1"><g transform="translate(541.011308, 322.614121)"><g><path d="M 11.550781 -16.238281 C 8.609375 -16.207031 6.433594 -15.042969 5.300781 -12.59375 L 5.300781 -16.148438 L 2.910156 -16.148438 L 2.910156 0 L 5.300781 0 L 5.300781 -8.671875 C 5.578125 -11.734375 7.539062 -13.816406 10.722656 -13.847656 C 13.574219 -13.847656 15.289062 -12.164062 15.289062 -9.3125 L 15.289062 0 L 17.679688 0 L 17.679688 -9.957031 C 17.679688 -13.847656 15.410156 -16.238281 11.550781 -16.238281 Z M 11.550781 -16.238281 "/></g></g></g><g fill="#000000" fill-opacity="1"><g transform="translate(561.106622, 322.614121)"><g><path d="M 8.855469 -8.148438 L 14.371094 0 L 17.21875 0 L 10.539062 -9.894531 L 16.574219 -16.148438 L 13.757812 -16.148438 L 5.453125 -7.875 L 5.453125 -22.734375 L 3.0625 -22.734375 L 3.0625 0 L 5.453125 0 L 5.453125 -4.625 Z M 8.855469 -8.148438 "/></g></g></g><g fill="#000000" fill-opacity="1"><g transform="translate(411.791209, 389.728266)"><g><path d="M 4.046875 -22.28125 C 3.164062 -22.28125 2.496094 -21.578125 2.496094 -20.636719 C 2.496094 -19.691406 3.164062 -18.992188 4.046875 -18.992188 C 4.929688 -18.992188 5.601562 -19.691406 5.601562 -20.636719 C 5.601562 -21.578125 4.929688 -22.28125 4.046875 -22.28125 Z M 5.234375 0 L 5.234375 -16.039062 L 2.890625 -16.039062 L 2.890625 0 Z M 5.234375 0 "/></g></g></g><g fill="#000000" fill-opacity="1"><g transform="translate(419.91716, 389.728266)"><g><path d="M 7.152344 -16.132812 C 4.230469 -16.132812 1.582031 -14.851562 1.582031 -11.777344 C 1.550781 -6.085938 10.53125 -8.066406 10.441406 -4.199219 C 10.410156 -2.617188 8.886719 -1.917969 7 -1.917969 C 5.113281 -1.917969 3.042969 -2.679688 1.675781 -3.957031 L 0.761719 -2.160156 C 2.28125 -0.699219 4.625 0.0898438 6.910156 0.0898438 C 9.984375 0.0898438 12.785156 -1.308594 12.785156 -4.472656 C 12.785156 -10.226562 3.835938 -8.402344 3.835938 -11.960938 C 3.835938 -13.453125 5.203125 -14.09375 7 -14.09375 C 8.492188 -14.09375 10.105469 -13.574219 11.351562 -12.785156 L 12.265625 -14.671875 C 10.925781 -15.582031 9.070312 -16.132812 7.152344 -16.132812 Z M 7.152344 -16.132812 "/></g></g></g><g fill="#000000" fill-opacity="1"><g transform="translate(433.703884, 389.728266)"><g/></g></g><g fill="#000000" fill-opacity="1"><g transform="translate(442.042874, 389.728266)"><g><path d="M 7.152344 -16.132812 C 4.230469 -16.132812 1.582031 -14.851562 1.582031 -11.777344 C 1.550781 -6.085938 10.53125 -8.066406 10.441406 -4.199219 C 10.410156 -2.617188 8.886719 -1.917969 7 -1.917969 C 5.113281 -1.917969 3.042969 -2.679688 1.675781 -3.957031 L 0.761719 -2.160156 C 2.28125 -0.699219 4.625 0.0898438 6.910156 0.0898438 C 9.984375 0.0898438 12.785156 -1.308594 12.785156 -4.472656 C 12.785156 -10.226562 3.835938 -8.402344 3.835938 -11.960938 C 3.835938 -13.453125 5.203125 -14.09375 7 -14.09375 C 8.492188 -14.09375 10.105469 -13.574219 11.351562 -12.785156 L 12.265625 -14.671875 C 10.925781 -15.582031 9.070312 -16.132812 7.152344 -16.132812 Z M 7.152344 -16.132812 "/></g></g></g><g fill="#000000" fill-opacity="1"><g transform="translate(455.829598, 389.728266)"><g><path d="M 11.597656 -16.132812 C 8.796875 -16.132812 6.605469 -14.824219 5.417969 -12.570312 L 5.417969 -16.039062 L 3.042969 -16.039062 L 3.042969 5.90625 L 5.417969 5.90625 L 5.417969 -3.4375 C 6.605469 -1.21875 8.796875 0.0898438 11.65625 0.0898438 C 16.191406 0.0898438 19.296875 -3.226562 19.296875 -7.972656 C 19.296875 -12.785156 16.132812 -16.132812 11.597656 -16.132812 Z M 11.171875 -2.070312 C 7.792969 -2.070312 5.417969 -4.535156 5.417969 -8.035156 C 5.417969 -11.503906 7.792969 -14 11.171875 -14 C 14.519531 -14 16.890625 -11.476562 16.890625 -8.035156 C 16.890625 -4.566406 14.519531 -2.070312 11.171875 -2.070312 Z M 11.171875 -2.070312 "/></g></g></g><g fill="#000000" fill-opacity="1"><g transform="translate(476.403164, 389.728266)"><g><path d="M 4.046875 -22.28125 C 3.164062 -22.28125 2.496094 -21.578125 2.496094 -20.636719 C 2.496094 -19.691406 3.164062 -18.992188 4.046875 -18.992188 C 4.929688 -18.992188 5.601562 -19.691406 5.601562 -20.636719 C 5.601562 -21.578125 4.929688 -22.28125 4.046875 -22.28125 Z M 5.234375 0 L 5.234375 -16.039062 L 2.890625 -16.039062 L 2.890625 0 Z M 5.234375 0 "/></g></g></g><g fill="#000000" fill-opacity="1"><g transform="translate(484.529116, 389.728266)"><g><path d="M 5.417969 0 L 5.417969 -22.585938 L 3.042969 -22.585938 L 3.042969 0 Z M 5.417969 0 "/></g></g></g><g fill="#000000" fill-opacity="1"><g transform="translate(492.989845, 389.728266)"><g><path d="M 5.417969 0 L 5.417969 -22.585938 L 3.042969 -22.585938 L 3.042969 0 Z M 5.417969 0 "/></g></g></g><g fill="#000000" fill-opacity="1"><g transform="translate(501.450574, 389.728266)"><g><path d="M 9.222656 -16.101562 C 4.566406 -16.101562 1.277344 -12.785156 1.277344 -8.003906 C 1.277344 -3.226562 4.535156 0.0898438 9.253906 0.0898438 C 11.929688 0.0898438 14.183594 -0.882812 15.707031 -2.585938 L 14.398438 -3.988281 C 13.148438 -2.679688 11.414062 -1.976562 9.433594 -1.976562 C 6.332031 -1.976562 4.046875 -3.957031 3.621094 -7.09375 L 16.710938 -7.09375 C 16.953125 -12.539062 14.398438 -16.132812 9.222656 -16.101562 Z M 3.621094 -9.039062 C 3.988281 -12.082031 6.179688 -14.0625 9.222656 -14.0625 C 12.359375 -14.0625 14.425781 -12.113281 14.578125 -9.039062 Z M 3.621094 -9.039062 "/></g></g></g><g fill="#000000" fill-opacity="1"><g transform="translate(519.345922, 389.728266)"><g><path d="M 17.621094 -22.585938 L 15.25 -22.585938 L 15.25 -12.570312 C 14.0625 -14.851562 11.839844 -16.160156 8.980469 -16.160156 C 4.445312 -16.160156 1.277344 -12.84375 1.277344 -8.035156 C 1.277344 -3.257812 4.445312 0.121094 9.007812 0.121094 C 11.871094 0.121094 14.0625 -1.1875 15.25 -3.4375 L 15.25 0 L 17.621094 0 Z M 9.464844 -2.007812 C 6.058594 -2.007812 3.652344 -4.503906 3.652344 -7.972656 C 3.652344 -11.476562 6.058594 -14 9.464844 -14 C 12.84375 -14 15.25 -11.476562 15.25 -7.972656 C 15.25 -4.503906 12.84375 -2.007812 9.464844 -2.007812 Z M 9.464844 -2.007812 "/></g></g></g><g fill="#000000" fill-opacity="1"><g transform="translate(540.010799, 389.728266)"><g><path d="M 4.503906 -15.796875 L 4.503906 -20.941406 L 2.222656 -20.941406 L 2.222656 -15.796875 L 2.558594 -6.421875 L 4.140625 -6.421875 Z M 3.347656 -2.921875 C 2.527344 -2.921875 1.886719 -2.253906 1.886719 -1.339844 C 1.886719 -0.425781 2.527344 0.242188 3.347656 0.242188 C 4.199219 0.242188 4.839844 -0.425781 4.839844 -1.339844 C 4.839844 -2.253906 4.199219 -2.921875 3.347656 -2.921875 Z M 3.347656 -2.921875 "/></g></g></g></svg>