<svg xmlns="http://www.w3.org/2000/svg"  viewBox="0 0 64 64" width="64px" height="64px"><path fill="#cda1a7" d="M44.137,27.378l-5.562-4.369c-0.954-0.814-1.492-2.008-1.468-3.263 c0.037-1.875,0.084-2.692,0.083-4.66C37.19,12.3,36.162,8.909,36,8h-8c-0.162,0.909-1.19,4.3-1.19,7.087 c-0.001,1.968,0.047,2.784,0.083,4.66c0.024,1.254-0.514,2.449-1.468,3.263l-5.562,4.369C17.962,29.001,17.001,31.5,17,34v26 c0.006,1.653,1.347,3,3,3c4,0,24,0,24,0c1.653,0,2.994-1.347,3-3V34C46.999,31.5,46.038,29.001,44.137,27.378z"/><path fill="#dbb2ba" d="M40,37v23c-0.01,1.65-1.35,3-3,3H20c-1.65,0-2.99-1.35-3-3V34c0-2.5,0.96-5,2.86-6.62l5.57-4.37 c0.95-0.81,1.49-2.01,1.46-3.26c-0.03-1.88-0.08-2.69-0.08-4.66c0-2.79,1.03-6.18,1.19-7.09h4c0.16,0.91,1.19,5.3,1.19,8.09 c0,1.97-0.05,4.78-0.08,6.66c-0.03,1.25,0.51,2.45,1.46,3.26C34.57,26.01,40,30,40,37z"/><rect width="30" height="18" x="17" y="35" fill="#b5c4e0"/><rect width="7" height="18" x="40" y="35" fill="#acb7d0"/><path fill="#8d6c9f" d="M46.8,36H26c-0.553,0-1-0.448-1-1s0.447-1,1-1h20.8c0.553,0,1,0.448,1,1S47.353,36,46.8,36z"/><path fill="#8d6c9f" d="M21,36h-3.6c-0.553,0-1-0.448-1-1s0.447-1,1-1H21c0.553,0,1,0.448,1,1S21.553,36,21,36z"/><polygon fill="#b5c4e0" points="37,20 27,20 28,7 36,7"/><path fill="#acb7d0" d="M33.14,20c0.03-1.6,0.05-3.38,0.05-4.76c0-2.84-1.03-7.31-1.19-8.24h4l1,13H33.14z"/><rect width="30" height="2" x="17" y="52" fill="#8d6c9f"/><path fill="#acb7d0" d="M37,8H27c-0.552,0-1-0.448-1-1V2c0-0.552,0.448-1,1-1h10c0.552,0,1,0.448,1,1v5 C38,7.552,37.552,8,37,8z"/><path fill="#b5c4e0" d="M32,8h-5c-0.552,0-1-0.448-1-1V2c0-0.552,0.448-1,1-1h5c0.552,0,1,0.448,1,1v5 C33,7.552,32.552,8,32,8z"/><path fill="#8d6c9f" d="M44,64H20c-2.198,0-3.992-1.793-4-3.997V34c0.001-2.949,1.173-5.64,3.214-7.383l5.595-4.394 c0.696-0.596,1.104-1.5,1.085-2.457c-0.012-0.612-0.025-1.111-0.037-1.575c-0.025-0.961-0.047-1.771-0.047-3.104 c0-2.271,0.623-4.825,0.995-6.351c0.098-0.402,0.176-0.718,0.211-0.913l1.969,0.352c-0.039,0.22-0.125,0.579-0.237,1.035 c-0.351,1.438-0.938,3.846-0.938,5.876c0,1.311,0.021,2.106,0.046,3.052c0.013,0.467,0.025,0.97,0.038,1.588 c0.03,1.558-0.633,3.032-1.818,4.043l-5.595,4.394C18.917,29.501,18.001,31.637,18,34v26c0.004,1.101,0.901,2,2,2h24 c1.099,0,1.996-0.899,2-2.003V34c-0.001-2.363-0.917-4.499-2.513-5.861l-5.53-4.342c-1.218-1.038-1.881-2.511-1.851-4.069 c0.013-0.618,0.025-1.121,0.038-1.588c0.024-0.945,0.046-1.741,0.046-3.052c0-2.031-0.587-4.438-0.938-5.876 c-0.112-0.457-0.198-0.815-0.237-1.035l1.969-0.352c0.035,0.195,0.113,0.51,0.211,0.913c0.372,1.526,0.995,4.079,0.995,6.351 c0,1.333-0.021,2.143-0.047,3.104c-0.012,0.463-0.025,0.962-0.037,1.575c-0.019,0.956,0.389,1.86,1.117,2.482l5.53,4.342 C46.827,28.36,47.999,31.051,48,34v26C47.992,62.207,46.198,64,44,64z"/><rect width="10" height="2" x="27" y="19" fill="#8d6c9f"/><path fill="#f9efde" d="M27.2,44c-0.001,3.312,2.147,5.998,4.798,6c2.651,0.002,4.801-2.682,4.802-5.994 c0-0.002,0-0.004,0-0.006c0.001-3.312-2.147-5.998-4.798-6s-4.801,2.682-4.802,5.994C27.2,43.996,27.2,43.998,27.2,44z"/><path fill="#8d6c9f" d="M37,9h-1c-0.553,0-1-0.448-1-1s0.447-1,1-1h1V2H27v5h5c0.553,0,1,0.448,1,1s-0.447,1-1,1h-5 c-1.103,0-2-0.897-2-2V2c0-1.103,0.897-2,2-2h10c1.103,0,2,0.897,2,2v5C39,8.103,38.103,9,37,9z"/><path fill="#8d6c9f" d="M22,60c-0.553,0-1-0.448-1-1v-2c0-0.552,0.447-1,1-1s1,0.448,1,1v2C23,59.552,22.553,60,22,60z"/><path fill="#8d6c9f" d="M27,60c-0.553,0-1-0.448-1-1v-2c0-0.552,0.447-1,1-1s1,0.448,1,1v2C28,59.552,27.553,60,27,60z"/><path fill="#8d6c9f" d="M32,60c-0.553,0-1-0.448-1-1v-2c0-0.552,0.447-1,1-1s1,0.448,1,1v2C33,59.552,32.553,60,32,60z"/><path fill="#8d6c9f" d="M37,60c-0.553,0-1-0.448-1-1v-2c0-0.552,0.447-1,1-1s1,0.448,1,1v2C38,59.552,37.553,60,37,60z"/><path fill="#8d6c9f" d="M42,60c-0.553,0-1-0.448-1-1v-2c0-0.552,0.447-1,1-1s1,0.448,1,1v2C43,59.552,42.553,60,42,60z"/><path fill="#8d6c9f" d="M32,51c-0.001,0-0.002,0-0.003,0c-3.197-0.002-5.798-3.142-5.797-7v0v-0.006 c0.001-1.829,0.578-3.556,1.627-4.865C28.927,37.756,30.409,37,32,37c0.001,0,0.002,0,0.003,0c3.197,0.002,5.798,3.142,5.797,7 c-0.001,1.834-0.578,3.562-1.627,4.87C35.073,50.244,33.591,51,32,51z M32,39c-0.972,0-1.899,0.49-2.612,1.38 c-0.766,0.956-1.188,2.239-1.188,3.615V44c-0.001,2.755,1.703,4.999,3.799,5H32c0.972,0,1.899-0.49,2.612-1.38 c0.766-0.956,1.188-2.239,1.188-3.615C35.801,41.244,34.097,39.001,32,39L32,39z M27.2,44h0.01H27.2z"/></svg>