<?xml version="1.0" encoding="utf-8"?>
<svg viewBox="0 0 504.123 504.123" style="enable-background:new 0 0 504.123 504.123;" xmlns="http://www.w3.org/2000/svg">
  <g transform="matrix(1, 0, 0, 1, -52.74762, -0.850756)">
    <path style="fill: rgb(0, 153, 229);" d="M 258.521 239.159 C 257.662 254.22 237.568 282.164 213.678 280.793 C 189.803 279.383 89.135 327.798 89.986 312.738 C 90.892 297.669 193.017 207.967 216.892 209.376 C 240.758 210.763 259.403 224.098 258.521 239.159 Z"/>
    <path style="fill: rgb(0, 153, 229);" d="M 249.344 232.952 C 250.218 217.891 270.297 206.832 294.203 208.195 C 318.078 209.613 441.016 184.151 440.165 199.211 C 439.259 214.272 314.856 264.152 290.981 262.735 C 267.106 261.356 248.462 248.013 249.344 232.952 Z"/>
  </g>
  <g transform="matrix(1, 0, 0, 1, -52.74762, -0.850756)">
    <path style="fill: rgb(0, 153, 229);" d="M231.29,361.913c0,19.503-15.817,124.668-35.336,124.668c-19.495,0-35.304-105.173-35.304-124.668 c0-19.495,15.817-35.32,35.304-35.32C215.473,326.593,231.29,342.418,231.29,361.913z"/>
    <path style="fill: rgb(0, 153, 229);" d="M349.649,361.913c0,19.503-15.817,124.668-35.336,124.668c-19.495,0-35.304-105.173-35.304-124.668 c0-19.495,15.817-35.32,35.304-35.32C333.832,326.593,349.649,342.418,349.649,361.913z"/>
  </g>
  <path style="fill: rgb(0, 201, 232);" d="M 302.037 314.391 C 302.037 440.721 257.438 398.65 202.394 398.65 C 147.366 398.65 102.751 440.721 102.751 314.391 C 102.751 242.16 147.382 183.61 202.394 183.61 C 257.423 183.619 302.037 242.168 302.037 314.391 Z"/>
  <g transform="matrix(1, 0, 0, 1, -52.74762, -0.850756)">
    <path style="fill:#3D3C39;" d="M259.742,352.484c0,2.536-2.064,4.6-4.6,4.6l0,0c-2.536,0-4.6-2.064-4.6-4.6V206.761 c0-2.536,2.064-4.592,4.6-4.592l0,0c2.536,0,4.6,2.056,4.6,4.592V352.484z"/>
    <path style="fill:#3D3C39;" d="M235.709,487.219c0,14.935-17.802,16.904-39.739,16.904s-39.739-1.961-39.739-16.904 c0-14.943,17.802-35.509,39.739-35.509S235.709,472.277,235.709,487.219z"/>
  </g>
  <path style="fill:#1C1B1A;" d="M 182.962 486.368 C 182.962 501.303 165.16 503.272 143.223 503.272 C 121.286 503.272 103.484 501.311 103.484 486.368"/>
  <path style="fill:#3D3C39;" d="M 301.313 486.368 C 301.313 501.303 283.511 503.272 261.574 503.272 C 239.637 503.272 221.835 501.311 221.835 486.368 C 221.835 471.425 239.637 450.859 261.574 450.859 C 283.511 450.859 301.313 471.426 301.313 486.368 Z"/>
  <path style="fill:#1C1B1A;" d="M 301.313 486.368 C 301.313 501.303 283.511 503.272 261.574 503.272 C 239.637 503.272 221.835 501.311 221.835 486.368"/>
  <path style="fill: rgb(0, 201, 232);" d="M 331.348 123.407 C 331.348 186.415 273.61 218.088 202.411 218.088 C 131.196 218.088 73.442 186.415 73.442 123.407 C 73.441 60.384 131.195 -0.851 202.41 -0.851 C 273.61 -0.851 331.348 60.384 331.348 123.407 Z"/>
  <path style="fill: rgb(0, 153, 229);" d="M 331.348 123.407 C 331.348 186.415 273.61 218.088 202.411 218.088 C 131.196 218.088 73.442 186.415 73.442 123.407"/>
  <path style="fill:#EFC286;" d="M 307.717 123.407 C 307.717 186.415 273.61 175.064 202.41 175.064 C 131.195 175.064 97.072 186.415 97.072 123.407 C 97.072 60.384 131.195 51.002 202.41 51.002 C 273.61 51.003 307.717 60.384 307.717 123.407 Z"/>
  <path style="fill:#E5AE73;" d="M 202.41 175.064 C 273.609 175.064 307.717 186.415 307.717 123.407 L 97.072 123.407 C 97.072 186.415 131.195 175.064 202.41 175.064 Z"/>
  <circle style="fill:#113E49;" cx="141.104" cy="128.275" r="11.532"/>
  <path d="M 152.604 128.275 C 152.604 134.663 147.437 139.815 141.064 139.815 C 134.692 139.815 129.54 134.663 129.54 128.275"/>
  <path style="fill:#FFD3C5;" d="M 163.821 152.324 C 163.207 152.324 162.576 152.111 162.096 151.607 C 156.464 145.983 148.989 142.887 141.049 142.887 L 141.033 142.887 C 133.093 142.887 125.634 145.991 120.033 151.599 C 119.08 152.552 117.544 152.576 116.599 151.607 C 115.646 150.685 115.614 149.149 116.567 148.188 C 123.105 141.642 131.785 138.027 141.025 138.027 L 141.041 138.027 C 150.304 138.027 158.993 141.619 165.546 148.172 C 166.483 149.109 166.483 150.677 165.546 151.606 C 165.081 152.111 164.467 152.324 163.821 152.324 Z"/>
  <circle style="fill:#113E49;" cx="263.724" cy="128.275" r="11.532"/>
  <path d="M 252.192 128.275 C 252.192 134.663 257.344 139.815 263.732 139.815 C 270.104 139.815 275.256 134.663 275.256 128.275"/>
  <path style="fill:#FFD3C5;" d="M 240.976 152.324 C 241.575 152.324 242.205 152.111 242.685 151.607 C 248.317 145.983 255.792 142.887 263.732 142.887 L 263.748 142.887 C 271.688 142.887 279.163 145.991 284.764 151.599 C 285.701 152.552 287.237 152.576 288.198 151.607 C 289.151 150.685 289.167 149.149 288.214 148.188 C 281.708 141.642 272.996 138.027 263.756 138.027 L 263.74 138.027 C 254.492 138.027 245.804 141.619 239.235 148.172 C 238.313 149.109 238.313 150.677 239.235 151.606 C 239.715 152.111 240.33 152.324 240.976 152.324 Z"/>
  <path style="fill:#592D08;" d="M 99.026 100.651 C 118.214 97.469 141.278 90.915 165.397 81.227 C 187.996 72.145 208.027 61.708 223.67 51.405 C 216.959 51.145 209.941 51.003 202.41 51.003 C 140.876 51.003 107.092 58.084 99.026 100.651 Z"/>
  <path style="fill:#723B0A;" d="M 181.111 51.405 C 196.755 61.716 216.786 72.145 239.384 81.227 C 263.503 90.908 286.567 97.469 305.755 100.651 C 297.697 58.092 263.921 51.003 202.402 51.003 C 194.872 51.003 187.83 51.145 181.111 51.405 Z"/>
  <g style="" transform="matrix(0.998303, 0, 0, 1, -57.086957, -2.552299)">
    <path style="fill:#592D08;" d="M 119.793 314.09 C 119.793 322.786 112.735 329.844 104.039 329.844 L 91.239 329.844 C 82.543 329.844 75.485 322.786 75.485 314.09 L 75.485 301.29 C 75.485 292.594 82.543 285.536 91.239 285.536 L 104.039 285.536 C 112.735 285.536 119.793 292.594 119.793 301.29 L 119.793 314.09 Z"/>
    <path style="fill:#592D08;" d="M 448.925 209.93 C 448.925 218.626 441.867 225.684 433.171 225.684 L 420.371 225.684 C 411.667 225.684 404.617 218.626 404.617 209.93 L 404.617 197.13 C 404.617 188.434 411.667 181.376 420.371 181.376 L 433.171 181.376 C 441.867 181.376 448.925 188.434 448.925 197.13 L 448.925 209.93 Z"/>
    <path fill="#e53935" d="M 523.334 429.855 C 523.289 429.847 523.242 429.84 523.2 429.834 L 469.551 422.615 C 468.676 422.487 467.77 422.683 467.081 423.123 C 466.398 423.564 466.004 424.213 466.006 424.894 L 466.311 472.805 C 466.313 473.473 466.702 474.105 467.376 474.528 C 467.91 474.871 468.583 475.055 469.276 475.055 C 469.449 475.055 469.62 475.044 469.79 475.021 L 522.849 467.989 C 529.987 466.804 534.681 459.32 534.807 448.92 C 534.936 438.394 530.537 431.087 523.334 429.855 Z" style="" transform="matrix(0.9991, -0.042346, 0.04249, 0.9991, -18.61983, 21.59423)"/>
    <path fill="#90caf9" d="M 483.663 482.854 C 483.692 480.441 479.924 478.451 474.961 478.068 C 473.867 476.568 467.521 475.417 459.82 475.417 C 455.643 475.417 451.855 475.757 449.083 476.308 C 448.415 476.28 447.754 476.25 447.068 476.25 C 439.554 476.25 433.082 477.962 430.22 480.415 C 429.712 480.39 429.202 480.373 428.681 480.373 C 418.555 480.373 410.292 484.543 410.232 489.69 C 410.168 494.835 418.33 499.005 428.453 499.005 C 430.025 499.005 431.538 498.896 432.998 498.706 C 435.857 500.309 440.36 501.346 445.453 501.346 C 452.434 501.346 458.373 499.403 460.466 496.717 C 471.896 496.371 480.922 492.854 480.973 488.562 C 480.984 487.821 480.702 487.108 480.209 486.427 C 482.302 485.536 483.645 484.271 483.663 482.854 Z" style="" transform="matrix(0.9991, -0.042346, 0.04249, 0.9991, -20.349102, 19.366003)"/>
    <path fill="#c62828" d="M 490.514 449.69 C 490.613 441.532 489.222 433.353 486.157 427.276 C 485.132 425.246 482.708 423.828 479.905 423.45 L 472.71 422.478 C 471.803 422.342 470.864 422.547 470.156 423.006 C 469.446 423.464 469.04 424.139 469.044 424.844 L 469.356 474.601 C 469.36 475.296 469.763 475.951 470.456 476.393 C 471.013 476.748 471.711 476.939 472.427 476.939 C 472.603 476.939 472.78 476.928 472.957 476.905 L 479.174 476.078 C 481.98 475.706 484.434 474.306 485.519 472.283 C 488.794 466.188 490.414 457.927 490.514 449.69 Z" style="" transform="matrix(0.9991, -0.042346, 0.04249, 0.9991, -18.675451, 20.721568)"/>
    <ellipse cx="23" cy="42.871" fill="#90caf9" rx="7.858" ry="2.081" transform="matrix(0.999103, -0.042345, 0.030294, 0.999614, 446.638122, 460.013009)" style=""/>
    <ellipse cx="22.719" cy="17.789" fill="#757575" rx="11.868" ry="26.622" transform="matrix(0.999103, -0.042345, 0.030294, 0.999614, 445.36267, 432.955204)" style=""/>
    <path fill="#bdbdbd" d="M 468.611 450.183 C 468.722 441.099 472.299 433.09 475.513 428.358 C 473.656 425.518 471.392 423.861 468.933 423.861 C 462.378 423.861 456.921 435.645 456.745 450.183 C 456.567 464.722 461.737 476.509 468.291 476.509 C 470.748 476.509 473.052 474.85 474.978 472.012 C 471.882 467.28 468.501 459.269 468.611 450.183 Z" style="" transform="matrix(0.9991, -0.042346, 0.04249, 0.9991, -18.708867, 20.143795)"/>
    <path fill="#e0e0e0" d="M 467.689 479.378 C 458.232 479.378 453.458 464.728 453.635 450.254 C 453.811 435.78 458.941 421.129 468.399 421.129 C 477.854 421.129 482.628 435.78 482.451 450.254 C 482.272 464.728 477.144 479.378 467.689 479.378 Z M 468.347 425.289 C 464.609 425.289 459.062 435.014 458.875 450.254 C 458.689 465.493 463.999 475.218 467.739 475.218 C 471.476 475.218 477.026 465.493 477.212 450.254 C 477.399 435.014 472.084 425.289 468.347 425.289 Z" style="" transform="matrix(0.9991, -0.042346, 0.04249, 0.9991, -18.710052, 20.225001)"/>
    <path fill="#90caf9" d="M 474.598 469.121 L 471.319 469.512 C 462.6 470.557 456.093 476.496 456.005 483.485 L 467.86 481.966 C 466.84 479.525 467.15 476.108 469.935 475.06 C 471.698 474.396 472.565 472.766 473.397 471.466 C 474.141 470.305 474.473 469.378 474.598 469.121 Z" style="" transform="matrix(0.9991, -0.042346, 0.04249, 0.9991, -19.819365, 20.132355)"/>
  </g>
  <g transform="matrix(1, 0, 0, 1, -52.74762, -0.850756)">
    <path style="fill:#3D3C39;" d="M251.975,220.625c0.638,0.646,0.638,1.686,0.016,2.324l-21.819,21.819 c-0.646,0.638-1.694,0.638-2.324,0l0,0c-0.646-0.646-0.646-1.686,0-2.324l21.819-21.819 C250.305,219.987,251.345,219.987,251.975,220.625L251.975,220.625z"/>
    <path style="fill:#3D3C39;" d="M253.96,230.471c-0.646,0.646-0.646,1.686-0.016,2.324l21.819,21.819 c0.646,0.638,1.694,0.638,2.316,0l0,0c0.654-0.646,0.654-1.686,0-2.324l-21.819-21.819 C255.63,229.833,254.582,229.833,253.96,230.471L253.96,230.471z"/>
  </g>
  <g/>
  <g/>
  <g/>
  <g/>
  <g/>
  <g/>
  <g/>
  <g/>
  <g/>
  <g/>
  <g/>
  <g/>
  <g/>
  <g/>
  <g/>
  <path style="fill:#AA1111;" d="M 171.646 167.242 C 171.646 161.09 184.383 156.088 200.074 156.088 C 215.765 156.088 228.502 161.09 228.502 167.242 C 228.502 173.394 215.765 169.715 200.074 169.715 C 184.383 169.716 171.646 173.402 171.646 167.242 Z"/>
</svg>